<mxfile host="app.diagrams.net" modified="2024-03-18T19:50:24.735Z" agent="Mozilla/5.0 (Windows NT 10.0; Win64; x64) AppleWebKit/537.36 (KHTML, like Gecko) Chrome/122.0.0.0 Safari/537.36 Edg/122.0.0.0" etag="bTxKOubWYYN07snAlfVW" version="24.0.7" type="google" pages="2">
  <diagram name="Use Case" id="n5DVIRR_5hszycnYLp8-">
    <mxGraphModel grid="1" page="1" gridSize="10" guides="1" tooltips="1" connect="1" arrows="1" fold="1" pageScale="1" pageWidth="827" pageHeight="1169" math="0" shadow="0">
      <root>
        <mxCell id="0" />
        <mxCell id="1" parent="0" />
        <mxCell id="szrJrrXE8Vr_B5hQflwQ-401" value="" style="rounded=1;whiteSpace=wrap;html=1;" vertex="1" parent="1">
          <mxGeometry x="2430" y="-1030" width="1750" height="3100" as="geometry" />
        </mxCell>
        <mxCell id="szrJrrXE8Vr_B5hQflwQ-242" value="Пользователь" style="shape=umlActor;verticalLabelPosition=bottom;verticalAlign=top;html=1;" vertex="1" parent="1">
          <mxGeometry x="2140" y="-250" width="30" height="60" as="geometry" />
        </mxCell>
        <mxCell id="szrJrrXE8Vr_B5hQflwQ-243" value="Войти в личный&lt;br&gt;кабинет" style="ellipse;whiteSpace=wrap;html=1;" vertex="1" parent="1">
          <mxGeometry x="2601.5" y="-793.75" width="140" height="70" as="geometry" />
        </mxCell>
        <mxCell id="szrJrrXE8Vr_B5hQflwQ-245" value="&lt;font style=&quot;font-size: 20px;&quot;&gt;&lt;b style=&quot;font-size: 20px;&quot;&gt;Use Case с&lt;/b&gt;&lt;b style=&quot;border-color: var(--border-color);&quot;&gt;труктурированная.&lt;/b&gt;&lt;b style=&quot;font-size: 20px;&quot;&gt;&lt;br&gt;CRM-система для&amp;nbsp; Амбассадоры&amp;nbsp;&lt;/b&gt;&lt;/font&gt;&lt;span style=&quot;font-size: 20px;&quot;&gt;&lt;b style=&quot;font-size: 20px;&quot;&gt;Практикума&lt;/b&gt;&lt;/span&gt;" style="text;html=1;align=center;verticalAlign=middle;whiteSpace=wrap;rounded=0;fontSize=20;" vertex="1" parent="1">
          <mxGeometry x="3120" y="-960" width="330" height="30" as="geometry" />
        </mxCell>
        <mxCell id="szrJrrXE8Vr_B5hQflwQ-246" value="Редактировать данные&lt;br style=&quot;border-color: var(--border-color); font-size: 11px;&quot;&gt;амбассадора" style="ellipse;whiteSpace=wrap;html=1;fontSize=11;" vertex="1" parent="1">
          <mxGeometry x="3459.5" y="140" width="140" height="70" as="geometry" />
        </mxCell>
        <mxCell id="szrJrrXE8Vr_B5hQflwQ-247" value="Авторизоваться&lt;br&gt;в личном кабинете" style="ellipse;whiteSpace=wrap;html=1;" vertex="1" parent="1">
          <mxGeometry x="2891.5" y="-730.0000000000005" width="140" height="70" as="geometry" />
        </mxCell>
        <mxCell id="szrJrrXE8Vr_B5hQflwQ-248" value="Посмотреть&lt;br&gt;список амбассадоров" style="ellipse;whiteSpace=wrap;html=1;" vertex="1" parent="1">
          <mxGeometry x="3262" y="20" width="140" height="70" as="geometry" />
        </mxCell>
        <mxCell id="szrJrrXE8Vr_B5hQflwQ-250" value="Фильтровать данные&lt;br&gt;амбассадоров" style="ellipse;whiteSpace=wrap;html=1;" vertex="1" parent="1">
          <mxGeometry x="3620" y="-230" width="140" height="70" as="geometry" />
        </mxCell>
        <mxCell id="szrJrrXE8Vr_B5hQflwQ-251" value="&amp;lt;&amp;lt;extend&amp;gt;&amp;gt;" style="endArrow=open;endSize=12;dashed=1;html=1;rounded=0;entryX=0.791;entryY=0.045;entryDx=0;entryDy=0;exitX=0;exitY=0.5;exitDx=0;exitDy=0;endFill=0;startArrow=none;startFill=0;entryPerimeter=0;" edge="1" parent="1" source="szrJrrXE8Vr_B5hQflwQ-250" target="szrJrrXE8Vr_B5hQflwQ-248">
          <mxGeometry x="-0.1111" width="160" relative="1" as="geometry">
            <mxPoint x="3482" y="-65" as="sourcePoint" />
            <mxPoint x="3342" y="30" as="targetPoint" />
            <mxPoint as="offset" />
          </mxGeometry>
        </mxCell>
        <mxCell id="szrJrrXE8Vr_B5hQflwQ-252" value="&amp;lt;&amp;lt;extend&amp;gt;&amp;gt;" style="endArrow=open;endSize=12;dashed=1;html=1;rounded=0;exitX=0.5;exitY=0;exitDx=0;exitDy=0;entryX=1;entryY=1;entryDx=0;entryDy=0;" edge="1" parent="1" source="szrJrrXE8Vr_B5hQflwQ-246" target="szrJrrXE8Vr_B5hQflwQ-248">
          <mxGeometry x="-0.1111" width="160" relative="1" as="geometry">
            <mxPoint x="3472" y="54.65999999999997" as="sourcePoint" />
            <mxPoint x="3400" y="55" as="targetPoint" />
            <mxPoint as="offset" />
          </mxGeometry>
        </mxCell>
        <mxCell id="szrJrrXE8Vr_B5hQflwQ-254" value="Экспортировать данные&lt;br style=&quot;font-size: 11px;&quot;&gt;амбассадоров" style="ellipse;whiteSpace=wrap;html=1;fontSize=11;" vertex="1" parent="1">
          <mxGeometry x="3627.5" y="-60" width="140" height="70" as="geometry" />
        </mxCell>
        <mxCell id="szrJrrXE8Vr_B5hQflwQ-255" value="Поиск по ФИО в&lt;br style=&quot;border-color: var(--border-color);&quot;&gt;списке амбассадоров" style="ellipse;whiteSpace=wrap;html=1;" vertex="1" parent="1">
          <mxGeometry x="3400" y="-225" width="140" height="70" as="geometry" />
        </mxCell>
        <mxCell id="szrJrrXE8Vr_B5hQflwQ-256" value="&amp;lt;&amp;lt;extend&amp;gt;&amp;gt;" style="endArrow=open;endSize=12;dashed=1;html=1;rounded=0;entryX=0.5;entryY=0;entryDx=0;entryDy=0;exitX=0.5;exitY=1;exitDx=0;exitDy=0;" edge="1" parent="1" source="szrJrrXE8Vr_B5hQflwQ-255" target="szrJrrXE8Vr_B5hQflwQ-248">
          <mxGeometry x="-0.1111" width="160" relative="1" as="geometry">
            <mxPoint x="3298" y="-20" as="sourcePoint" />
            <mxPoint x="3338" y="100" as="targetPoint" />
            <mxPoint as="offset" />
          </mxGeometry>
        </mxCell>
        <mxCell id="szrJrrXE8Vr_B5hQflwQ-257" value="Посмотреть&lt;br&gt;контент" style="ellipse;whiteSpace=wrap;html=1;" vertex="1" parent="1">
          <mxGeometry x="2750" y="760" width="140" height="70" as="geometry" />
        </mxCell>
        <mxCell id="szrJrrXE8Vr_B5hQflwQ-258" value="Посмотреть &lt;br&gt;отправить мерч" style="ellipse;whiteSpace=wrap;html=1;" vertex="1" parent="1">
          <mxGeometry x="3384" y="502.5" width="140" height="70" as="geometry" />
        </mxCell>
        <mxCell id="szrJrrXE8Vr_B5hQflwQ-259" value="Посмотреть карточку&lt;br&gt;амбассадора" style="ellipse;whiteSpace=wrap;html=1;" vertex="1" parent="1">
          <mxGeometry x="3262" y="310" width="140" height="70" as="geometry" />
        </mxCell>
        <mxCell id="szrJrrXE8Vr_B5hQflwQ-260" value="&amp;lt;&amp;lt;include&amp;gt;&amp;gt;" style="endArrow=none;endSize=12;dashed=1;html=1;rounded=0;entryX=0.5;entryY=1;entryDx=0;entryDy=0;exitX=0.5;exitY=0;exitDx=0;exitDy=0;endFill=0;startArrow=open;startFill=0;" edge="1" parent="1" source="szrJrrXE8Vr_B5hQflwQ-259" target="szrJrrXE8Vr_B5hQflwQ-248">
          <mxGeometry x="-0.1111" width="160" relative="1" as="geometry">
            <mxPoint x="3429" y="375" as="sourcePoint" />
            <mxPoint x="3321" y="270" as="targetPoint" />
            <mxPoint as="offset" />
          </mxGeometry>
        </mxCell>
        <mxCell id="szrJrrXE8Vr_B5hQflwQ-262" value="&amp;lt;&amp;lt;include&amp;gt;&amp;gt;" style="endArrow=open;endSize=6;dashed=1;html=1;rounded=0;entryX=0.5;entryY=1;entryDx=0;entryDy=0;exitX=0.5;exitY=0;exitDx=0;exitDy=0;fillColor=#f8cecc;strokeColor=#050505;" edge="1" parent="1" source="szrJrrXE8Vr_B5hQflwQ-258" target="szrJrrXE8Vr_B5hQflwQ-259">
          <mxGeometry x="-0.1111" width="160" relative="1" as="geometry">
            <mxPoint x="3344.5" y="1025" as="sourcePoint" />
            <mxPoint x="3344.5" y="825" as="targetPoint" />
            <mxPoint as="offset" />
          </mxGeometry>
        </mxCell>
        <mxCell id="szrJrrXE8Vr_B5hQflwQ-263" value="Посмотреть&amp;nbsp;&lt;br&gt;бюджет на мерч" style="ellipse;whiteSpace=wrap;html=1;" vertex="1" parent="1">
          <mxGeometry x="2890" y="1183.0300000000002" width="140" height="70" as="geometry" />
        </mxCell>
        <mxCell id="szrJrrXE8Vr_B5hQflwQ-264" value="&lt;font style=&quot;font-size: 11px;&quot;&gt;Посмотреть&lt;br&gt;программу лояльности&lt;/font&gt;" style="ellipse;whiteSpace=wrap;html=1;" vertex="1" parent="1">
          <mxGeometry x="2700.5" y="1475.9700000000003" width="140" height="70" as="geometry" />
        </mxCell>
        <mxCell id="szrJrrXE8Vr_B5hQflwQ-267" value="Посмотреть&lt;br&gt;FAQ" style="ellipse;whiteSpace=wrap;html=1;" vertex="1" parent="1">
          <mxGeometry x="2560" y="1725.9699999999998" width="140" height="70" as="geometry" />
        </mxCell>
        <mxCell id="szrJrrXE8Vr_B5hQflwQ-269" value="Выбрать период&lt;br&gt;в просмотре программы лояльности" style="ellipse;whiteSpace=wrap;html=1;" vertex="1" parent="1">
          <mxGeometry x="3018.5" y="1620" width="140" height="70" as="geometry" />
        </mxCell>
        <mxCell id="szrJrrXE8Vr_B5hQflwQ-270" value="&amp;lt;&amp;lt;extend&amp;gt;&amp;gt;" style="endArrow=open;endSize=12;dashed=1;html=1;rounded=0;entryX=0.966;entryY=0.684;entryDx=0;entryDy=0;entryPerimeter=0;" edge="1" parent="1" source="szrJrrXE8Vr_B5hQflwQ-269" target="szrJrrXE8Vr_B5hQflwQ-264">
          <mxGeometry x="-0.1111" width="160" relative="1" as="geometry">
            <mxPoint x="3333" y="2088.4700000000003" as="sourcePoint" />
            <mxPoint x="3260" y="2088.4700000000003" as="targetPoint" />
            <mxPoint as="offset" />
          </mxGeometry>
        </mxCell>
        <mxCell id="szrJrrXE8Vr_B5hQflwQ-271" value="Создать &lt;br&gt;вопрос-ответ&lt;br&gt;в FAQ" style="ellipse;whiteSpace=wrap;html=1;" vertex="1" parent="1">
          <mxGeometry x="2820.5" y="1709.9999999999995" width="140" height="70" as="geometry" />
        </mxCell>
        <mxCell id="szrJrrXE8Vr_B5hQflwQ-272" value="Редактировать&lt;br&gt;вопрос-ответ&amp;nbsp;&lt;br&gt;в FAQ" style="ellipse;whiteSpace=wrap;html=1;" vertex="1" parent="1">
          <mxGeometry x="2820.5" y="1795.9699999999998" width="140" height="70" as="geometry" />
        </mxCell>
        <mxCell id="szrJrrXE8Vr_B5hQflwQ-273" value="Удалить&lt;br&gt;вопрос-ответ&amp;nbsp;&lt;br&gt;в FAQ" style="ellipse;whiteSpace=wrap;html=1;" vertex="1" parent="1">
          <mxGeometry x="2820.5" y="1879.9999999999995" width="140" height="70" as="geometry" />
        </mxCell>
        <mxCell id="szrJrrXE8Vr_B5hQflwQ-274" value="Поиск&lt;br&gt;по ключевым словам&lt;br&gt;вопрос-ответ&lt;br&gt;в FAQ" style="ellipse;whiteSpace=wrap;html=1;" vertex="1" parent="1">
          <mxGeometry x="2820.5" y="1619.9999999999995" width="140" height="70" as="geometry" />
        </mxCell>
        <mxCell id="szrJrrXE8Vr_B5hQflwQ-275" value="&amp;lt;&amp;lt;extend&amp;gt;&amp;gt;" style="endArrow=open;endSize=12;dashed=1;html=1;rounded=0;entryX=0.918;entryY=0.8;entryDx=0;entryDy=0;exitX=0;exitY=0.5;exitDx=0;exitDy=0;entryPerimeter=0;" edge="1" parent="1" source="szrJrrXE8Vr_B5hQflwQ-273" target="szrJrrXE8Vr_B5hQflwQ-267">
          <mxGeometry x="-0.1111" width="160" relative="1" as="geometry">
            <mxPoint x="2868" y="1870.44" as="sourcePoint" />
            <mxPoint x="2719.9974746830585" y="1785.7187373415286" as="targetPoint" />
            <mxPoint as="offset" />
          </mxGeometry>
        </mxCell>
        <mxCell id="szrJrrXE8Vr_B5hQflwQ-276" value="&amp;lt;&amp;lt;extend&amp;gt;&amp;gt;" style="endArrow=open;endSize=12;dashed=1;html=1;rounded=0;entryX=1;entryY=0.5;entryDx=0;entryDy=0;exitX=0;exitY=0.5;exitDx=0;exitDy=0;" edge="1" parent="1" source="szrJrrXE8Vr_B5hQflwQ-272" target="szrJrrXE8Vr_B5hQflwQ-267">
          <mxGeometry x="-0.1111" width="160" relative="1" as="geometry">
            <mxPoint x="2878.5" y="1880.9699999999998" as="sourcePoint" />
            <mxPoint x="2740.5000000000005" y="1760.9699999999998" as="targetPoint" />
            <mxPoint as="offset" />
          </mxGeometry>
        </mxCell>
        <mxCell id="szrJrrXE8Vr_B5hQflwQ-277" value="&amp;lt;&amp;lt;include&amp;gt;&amp;gt;" style="endArrow=open;endSize=6;dashed=1;html=1;rounded=0;entryX=0;entryY=0.5;entryDx=0;entryDy=0;exitX=0.954;exitY=0.305;exitDx=0;exitDy=0;exitPerimeter=0;" edge="1" parent="1" source="szrJrrXE8Vr_B5hQflwQ-267" target="szrJrrXE8Vr_B5hQflwQ-271">
          <mxGeometry x="-0.1111" width="160" relative="1" as="geometry">
            <mxPoint x="2719.9974746830585" y="1736.221262658471" as="sourcePoint" />
            <mxPoint x="3018.5" y="1360.9699999999998" as="targetPoint" />
            <mxPoint as="offset" />
          </mxGeometry>
        </mxCell>
        <mxCell id="szrJrrXE8Vr_B5hQflwQ-278" value="&amp;lt;&amp;lt;extend&amp;gt;&amp;gt;" style="endArrow=open;endSize=12;dashed=1;html=1;rounded=0;exitX=0;exitY=0.5;exitDx=0;exitDy=0;entryX=1;entryY=0;entryDx=0;entryDy=0;" edge="1" parent="1" source="szrJrrXE8Vr_B5hQflwQ-274" target="szrJrrXE8Vr_B5hQflwQ-267">
          <mxGeometry x="-0.1111" width="160" relative="1" as="geometry">
            <mxPoint x="2878.5" y="1880.9699999999998" as="sourcePoint" />
            <mxPoint x="2655.5" y="1792.9999999999995" as="targetPoint" />
            <mxPoint as="offset" />
          </mxGeometry>
        </mxCell>
        <mxCell id="szrJrrXE8Vr_B5hQflwQ-279" value="Сортировать мерч &lt;br style=&quot;font-size: 11px;&quot;&gt;в программе лояльности" style="ellipse;whiteSpace=wrap;html=1;fontSize=11;" vertex="1" parent="1">
          <mxGeometry x="3018.5" y="1355.9700000000003" width="140" height="70" as="geometry" />
        </mxCell>
        <mxCell id="szrJrrXE8Vr_B5hQflwQ-280" value="Поиск по ФИО&amp;nbsp;&lt;br&gt;в программе лояльности" style="ellipse;whiteSpace=wrap;html=1;" vertex="1" parent="1">
          <mxGeometry x="3018.5" y="1525.9700000000003" width="140" height="70" as="geometry" />
        </mxCell>
        <mxCell id="szrJrrXE8Vr_B5hQflwQ-281" value="&amp;lt;&amp;lt;extend&amp;gt;&amp;gt;" style="endArrow=open;endSize=12;dashed=1;html=1;rounded=0;entryX=1;entryY=0.5;entryDx=0;entryDy=0;exitX=0;exitY=0.5;exitDx=0;exitDy=0;" edge="1" parent="1" source="szrJrrXE8Vr_B5hQflwQ-280" target="szrJrrXE8Vr_B5hQflwQ-264">
          <mxGeometry x="-0.1111" width="160" relative="1" as="geometry">
            <mxPoint x="3265" y="1942.4700000000003" as="sourcePoint" />
            <mxPoint x="3145" y="1942.4700000000003" as="targetPoint" />
            <mxPoint as="offset" />
          </mxGeometry>
        </mxCell>
        <mxCell id="szrJrrXE8Vr_B5hQflwQ-282" value="&amp;lt;&amp;lt;extend&amp;gt;&amp;gt;" style="endArrow=open;endSize=12;dashed=1;html=1;rounded=0;entryX=1;entryY=0;entryDx=0;entryDy=0;exitX=0;exitY=0.5;exitDx=0;exitDy=0;endFill=0;startArrow=none;startFill=0;" edge="1" parent="1" source="szrJrrXE8Vr_B5hQflwQ-279" target="szrJrrXE8Vr_B5hQflwQ-264">
          <mxGeometry x="-0.1291" y="-3" width="160" relative="1" as="geometry">
            <mxPoint x="3255" y="1792.4700000000003" as="sourcePoint" />
            <mxPoint x="3115" y="1868.4700000000003" as="targetPoint" />
            <mxPoint as="offset" />
          </mxGeometry>
        </mxCell>
        <mxCell id="szrJrrXE8Vr_B5hQflwQ-283" value="Фильтрация по ключевым параметрам&lt;br style=&quot;font-size: 9px;&quot;&gt;бюджета на мерч во вкладке &quot;Бюджет&quot;" style="ellipse;whiteSpace=wrap;html=1;fontSize=9;" vertex="1" parent="1">
          <mxGeometry x="3670" y="870" width="140" height="70" as="geometry" />
        </mxCell>
        <mxCell id="szrJrrXE8Vr_B5hQflwQ-284" value="Экспортировать &lt;br style=&quot;font-size: 11px;&quot;&gt;данные бюджета на мерч во вкладке &quot;Бюджет&quot;" style="ellipse;whiteSpace=wrap;html=1;fontSize=11;" vertex="1" parent="1">
          <mxGeometry x="3665" y="1033.0299999999997" width="140" height="70" as="geometry" />
        </mxCell>
        <mxCell id="szrJrrXE8Vr_B5hQflwQ-285" value="&amp;lt;&amp;lt;extend&amp;gt;&amp;gt;" style="endArrow=open;endSize=12;dashed=1;html=1;rounded=0;exitX=0;exitY=0.5;exitDx=0;exitDy=0;endFill=0;startArrow=none;startFill=0;entryX=1;entryY=0;entryDx=0;entryDy=0;" edge="1" parent="1" source="szrJrrXE8Vr_B5hQflwQ-283" target="szrJrrXE8Vr_B5hQflwQ-263">
          <mxGeometry x="-0.1111" width="160" relative="1" as="geometry">
            <mxPoint x="3516.5" y="1913.4700000000003" as="sourcePoint" />
            <mxPoint x="3604.92" y="1750.85" as="targetPoint" />
            <mxPoint as="offset" />
          </mxGeometry>
        </mxCell>
        <mxCell id="szrJrrXE8Vr_B5hQflwQ-286" value="&amp;lt;&amp;lt;extend&amp;gt;&amp;gt;" style="endArrow=open;endSize=12;dashed=1;html=1;rounded=0;entryX=0.992;entryY=0.396;entryDx=0;entryDy=0;exitX=0;exitY=0.5;exitDx=0;exitDy=0;entryPerimeter=0;" edge="1" parent="1" source="szrJrrXE8Vr_B5hQflwQ-284" target="szrJrrXE8Vr_B5hQflwQ-263">
          <mxGeometry x="-0.1111" width="160" relative="1" as="geometry">
            <mxPoint x="3746.5" y="1823.4700000000003" as="sourcePoint" />
            <mxPoint x="3625.997474683058" y="1758.721262658471" as="targetPoint" />
            <mxPoint as="offset" />
          </mxGeometry>
        </mxCell>
        <mxCell id="szrJrrXE8Vr_B5hQflwQ-287" value="Посмотреть вкладку&lt;br&gt;&quot;Стоимость товара&quot;&lt;br&gt;в бюджете на мерч" style="ellipse;whiteSpace=wrap;html=1;" vertex="1" parent="1">
          <mxGeometry x="3265" y="1346.9700000000003" width="140" height="70" as="geometry" />
        </mxCell>
        <mxCell id="szrJrrXE8Vr_B5hQflwQ-288" value="&amp;lt;&amp;lt;include&amp;gt;&amp;gt;" style="endArrow=none;endSize=12;dashed=1;html=1;rounded=0;entryX=0.684;entryY=0.964;entryDx=0;entryDy=0;exitX=0;exitY=0.5;exitDx=0;exitDy=0;endFill=0;startArrow=open;startFill=0;entryPerimeter=0;" edge="1" parent="1" source="szrJrrXE8Vr_B5hQflwQ-287" target="szrJrrXE8Vr_B5hQflwQ-263">
          <mxGeometry x="-0.1111" width="160" relative="1" as="geometry">
            <mxPoint x="3488.5" y="1880.4700000000003" as="sourcePoint" />
            <mxPoint x="3316.5" y="1948.4700000000003" as="targetPoint" />
            <mxPoint as="offset" />
          </mxGeometry>
        </mxCell>
        <mxCell id="szrJrrXE8Vr_B5hQflwQ-289" value="Поиск во вкладке &quot;Бюджет&quot; бюджет на мерч" style="ellipse;whiteSpace=wrap;html=1;" vertex="1" parent="1">
          <mxGeometry x="3665" y="1113.0299999999997" width="140" height="70" as="geometry" />
        </mxCell>
        <mxCell id="szrJrrXE8Vr_B5hQflwQ-290" value="&amp;lt;&amp;lt;extend&amp;gt;&amp;gt;" style="endArrow=open;endSize=12;dashed=1;html=1;rounded=0;exitX=0;exitY=0.5;exitDx=0;exitDy=0;entryX=0.991;entryY=0.581;entryDx=0;entryDy=0;entryPerimeter=0;" edge="1" parent="1" source="szrJrrXE8Vr_B5hQflwQ-289" target="szrJrrXE8Vr_B5hQflwQ-263">
          <mxGeometry x="-0.1111" width="160" relative="1" as="geometry">
            <mxPoint x="3686.5" y="1753.4700000000003" as="sourcePoint" />
            <mxPoint x="3644.6800000000003" y="1775.9099999999999" as="targetPoint" />
            <mxPoint as="offset" />
          </mxGeometry>
        </mxCell>
        <mxCell id="szrJrrXE8Vr_B5hQflwQ-291" value="Редактировать&lt;br style=&quot;font-size: 11px;&quot;&gt;мерч&amp;nbsp;в посмотреть вкладку&lt;br style=&quot;border-color: var(--border-color); font-size: 11px;&quot;&gt;&lt;span style=&quot;font-size: 11px;&quot;&gt;&quot;Стоимость товара&quot;&lt;/span&gt;" style="ellipse;whiteSpace=wrap;html=1;fontSize=11;" vertex="1" parent="1">
          <mxGeometry x="3495" y="1430.0000000000002" width="140" height="70" as="geometry" />
        </mxCell>
        <mxCell id="szrJrrXE8Vr_B5hQflwQ-292" value="Добавить мерч&amp;nbsp;в посмотреть вкладку&lt;br style=&quot;border-color: var(--border-color); font-size: 11px;&quot;&gt;&lt;span style=&quot;font-size: 11px;&quot;&gt;&quot;Стоимость товара&quot;&lt;/span&gt;" style="ellipse;whiteSpace=wrap;html=1;" vertex="1" parent="1">
          <mxGeometry x="3495" y="1346.9700000000003" width="140" height="70" as="geometry" />
        </mxCell>
        <mxCell id="szrJrrXE8Vr_B5hQflwQ-293" value="Удалить мерч&amp;nbsp;в посмотреть вкладку&lt;br style=&quot;border-color: var(--border-color); font-size: 11px;&quot;&gt;&lt;span style=&quot;font-size: 11px;&quot;&gt;&quot;Стоимость товара&quot;&lt;/span&gt;" style="ellipse;whiteSpace=wrap;html=1;" vertex="1" parent="1">
          <mxGeometry x="3495" y="1520.0000000000002" width="140" height="70" as="geometry" />
        </mxCell>
        <mxCell id="szrJrrXE8Vr_B5hQflwQ-294" value="&amp;lt;&amp;lt;extend&amp;gt;&amp;gt;" style="endArrow=open;endSize=12;dashed=1;html=1;rounded=0;exitX=0;exitY=0.5;exitDx=0;exitDy=0;entryX=0.965;entryY=0.654;entryDx=0;entryDy=0;entryPerimeter=0;" edge="1" parent="1" source="szrJrrXE8Vr_B5hQflwQ-291" target="szrJrrXE8Vr_B5hQflwQ-287">
          <mxGeometry x="-0.1111" width="160" relative="1" as="geometry">
            <mxPoint x="3788.75" y="1768.4700000000003" as="sourcePoint" />
            <mxPoint x="3687.75" y="1743.4700000000003" as="targetPoint" />
            <mxPoint as="offset" />
          </mxGeometry>
        </mxCell>
        <mxCell id="szrJrrXE8Vr_B5hQflwQ-295" value="&amp;lt;&amp;lt;extend&amp;gt;&amp;gt;" style="endArrow=open;endSize=12;dashed=1;html=1;rounded=0;exitX=0;exitY=0.5;exitDx=0;exitDy=0;entryX=1;entryY=1;entryDx=0;entryDy=0;" edge="1" parent="1" source="szrJrrXE8Vr_B5hQflwQ-293" target="szrJrrXE8Vr_B5hQflwQ-287">
          <mxGeometry x="-0.1111" width="160" relative="1" as="geometry">
            <mxPoint x="3788.75" y="1858.4700000000003" as="sourcePoint" />
            <mxPoint x="3700.75" y="1881.4700000000003" as="targetPoint" />
            <mxPoint as="offset" />
          </mxGeometry>
        </mxCell>
        <mxCell id="szrJrrXE8Vr_B5hQflwQ-296" value="&amp;lt;&amp;lt;include&amp;gt;&amp;gt;" style="endArrow=open;endSize=6;dashed=1;html=1;rounded=0;entryX=0;entryY=0.5;entryDx=0;entryDy=0;exitX=1;exitY=0.5;exitDx=0;exitDy=0;" edge="1" parent="1" source="szrJrrXE8Vr_B5hQflwQ-287" target="szrJrrXE8Vr_B5hQflwQ-292">
          <mxGeometry x="-0.0057" y="1" width="160" relative="1" as="geometry">
            <mxPoint x="3694.75" y="1902.4700000000003" as="sourcePoint" />
            <mxPoint x="3802.75" y="1932.4700000000003" as="targetPoint" />
            <mxPoint as="offset" />
          </mxGeometry>
        </mxCell>
        <mxCell id="szrJrrXE8Vr_B5hQflwQ-297" value="Настроить&lt;br style=&quot;font-size: 11px;&quot;&gt;&amp;nbsp;отображение&amp;nbsp;таблицы&amp;nbsp;&lt;span style=&quot;font-size: 12px;&quot;&gt;во вкладке &quot;Бюджет&quot; бюджет на мерч&lt;/span&gt;" style="ellipse;whiteSpace=wrap;html=1;fontSize=11;" vertex="1" parent="1">
          <mxGeometry x="3670" y="1276.9700000000003" width="140" height="70" as="geometry" />
        </mxCell>
        <mxCell id="szrJrrXE8Vr_B5hQflwQ-298" value="&amp;lt;&amp;lt;extend&amp;gt;&amp;gt;" style="endArrow=open;endSize=12;dashed=1;html=1;rounded=0;exitX=-0.031;exitY=0.418;exitDx=0;exitDy=0;exitPerimeter=0;endFill=0;startArrow=none;startFill=0;entryX=1;entryY=1;entryDx=0;entryDy=0;" edge="1" parent="1" source="szrJrrXE8Vr_B5hQflwQ-297" target="szrJrrXE8Vr_B5hQflwQ-263">
          <mxGeometry x="-0.1109" width="160" relative="1" as="geometry">
            <mxPoint x="3828.75" y="2028.4700000000003" as="sourcePoint" />
            <mxPoint x="3020" y="1250" as="targetPoint" />
            <mxPoint as="offset" />
          </mxGeometry>
        </mxCell>
        <mxCell id="szrJrrXE8Vr_B5hQflwQ-299" value="Фильтрация по ключевым параметрам&lt;br style=&quot;border-color: var(--border-color);&quot;&gt;отправки мерча" style="ellipse;whiteSpace=wrap;html=1;" vertex="1" parent="1">
          <mxGeometry x="3744" y="290" width="140" height="70" as="geometry" />
        </mxCell>
        <mxCell id="szrJrrXE8Vr_B5hQflwQ-300" value="Поиск по ФИО в отправке мерча" style="ellipse;whiteSpace=wrap;html=1;" vertex="1" parent="1">
          <mxGeometry x="3744" y="450" width="140" height="70" as="geometry" />
        </mxCell>
        <mxCell id="szrJrrXE8Vr_B5hQflwQ-301" value="&amp;lt;&amp;lt;extend&amp;gt;&amp;gt;" style="endArrow=open;endSize=12;dashed=1;html=1;rounded=0;exitX=0;exitY=0.5;exitDx=0;exitDy=0;entryX=0.71;entryY=0.055;entryDx=0;entryDy=0;entryPerimeter=0;endFill=0;startArrow=none;startFill=0;" edge="1" parent="1" source="szrJrrXE8Vr_B5hQflwQ-299" target="szrJrrXE8Vr_B5hQflwQ-258">
          <mxGeometry x="-0.1111" width="160" relative="1" as="geometry">
            <mxPoint x="3536.5" y="1217.5" as="sourcePoint" />
            <mxPoint x="3436.5" y="1248.5" as="targetPoint" />
            <mxPoint as="offset" />
          </mxGeometry>
        </mxCell>
        <mxCell id="szrJrrXE8Vr_B5hQflwQ-302" value="&amp;lt;&amp;lt;extend&amp;gt;&amp;gt;" style="endArrow=open;endSize=12;dashed=1;html=1;rounded=0;exitX=0;exitY=0.5;exitDx=0;exitDy=0;entryX=0.898;entryY=0.198;entryDx=0;entryDy=0;entryPerimeter=0;" edge="1" parent="1" source="szrJrrXE8Vr_B5hQflwQ-300" target="szrJrrXE8Vr_B5hQflwQ-258">
          <mxGeometry x="-0.1111" width="160" relative="1" as="geometry">
            <mxPoint x="3616.5" y="1267.5" as="sourcePoint" />
            <mxPoint x="3399.5" y="1383.5" as="targetPoint" />
            <mxPoint as="offset" />
          </mxGeometry>
        </mxCell>
        <mxCell id="szrJrrXE8Vr_B5hQflwQ-303" value="Добавить строку&lt;br style=&quot;border-color: var(--border-color);&quot;&gt;в отправке мерча" style="ellipse;whiteSpace=wrap;html=1;" vertex="1" parent="1">
          <mxGeometry x="3781.5" y="547.5" width="140" height="70" as="geometry" />
        </mxCell>
        <mxCell id="szrJrrXE8Vr_B5hQflwQ-304" value="Удалить строку&lt;br style=&quot;border-color: var(--border-color);&quot;&gt;в отправке мерча" style="ellipse;whiteSpace=wrap;html=1;" vertex="1" parent="1">
          <mxGeometry x="3781.5" y="717.5" width="140" height="70" as="geometry" />
        </mxCell>
        <mxCell id="szrJrrXE8Vr_B5hQflwQ-305" value="&amp;lt;&amp;lt;extend&amp;gt;&amp;gt;" style="endArrow=open;endSize=12;dashed=1;html=1;rounded=0;exitX=0;exitY=0.5;exitDx=0;exitDy=0;entryX=0.983;entryY=0.633;entryDx=0;entryDy=0;entryPerimeter=0;" edge="1" parent="1" source="szrJrrXE8Vr_B5hQflwQ-303" target="szrJrrXE8Vr_B5hQflwQ-258">
          <mxGeometry x="-0.1111" width="160" relative="1" as="geometry">
            <mxPoint x="3636.5" y="1327.5" as="sourcePoint" />
            <mxPoint x="3396.5" y="1471.5" as="targetPoint" />
            <mxPoint as="offset" />
          </mxGeometry>
        </mxCell>
        <mxCell id="szrJrrXE8Vr_B5hQflwQ-306" value="&amp;lt;&amp;lt;extend&amp;gt;&amp;gt;" style="endArrow=open;endSize=12;dashed=1;html=1;rounded=0;exitX=0;exitY=0.5;exitDx=0;exitDy=0;entryX=0.738;entryY=0.953;entryDx=0;entryDy=0;entryPerimeter=0;" edge="1" parent="1" source="szrJrrXE8Vr_B5hQflwQ-304" target="szrJrrXE8Vr_B5hQflwQ-258">
          <mxGeometry x="-0.1111" width="160" relative="1" as="geometry">
            <mxPoint x="3626.5" y="1482.5" as="sourcePoint" />
            <mxPoint x="3250.5" y="1537.5" as="targetPoint" />
            <mxPoint as="offset" />
          </mxGeometry>
        </mxCell>
        <mxCell id="szrJrrXE8Vr_B5hQflwQ-307" value="Фильтрация по ключевым параметрам&lt;br style=&quot;border-color: var(--border-color);&quot;&gt;просмотра контента" style="ellipse;whiteSpace=wrap;html=1;" vertex="1" parent="1">
          <mxGeometry x="3030" y="477.5" width="140" height="70" as="geometry" />
        </mxCell>
        <mxCell id="szrJrrXE8Vr_B5hQflwQ-308" value="Настроить&lt;br style=&quot;border-color: var(--border-color);&quot;&gt;&amp;nbsp;отображение&amp;nbsp;таблицы&lt;br style=&quot;border-color: var(--border-color);&quot;&gt;просмотра контента" style="ellipse;whiteSpace=wrap;html=1;" vertex="1" parent="1">
          <mxGeometry x="3030" y="640" width="140" height="70" as="geometry" />
        </mxCell>
        <mxCell id="szrJrrXE8Vr_B5hQflwQ-309" value="Экспортировать данные&lt;br style=&quot;font-size: 11px;&quot;&gt;просмотра контента" style="ellipse;whiteSpace=wrap;html=1;fontSize=11;" vertex="1" parent="1">
          <mxGeometry x="3030" y="720" width="140" height="70" as="geometry" />
        </mxCell>
        <mxCell id="szrJrrXE8Vr_B5hQflwQ-310" value="&amp;lt;&amp;lt;extend&amp;gt;&amp;gt;" style="endArrow=open;endSize=12;dashed=1;html=1;rounded=0;entryX=0.937;entryY=0.238;entryDx=0;entryDy=0;exitX=0;exitY=0.5;exitDx=0;exitDy=0;entryPerimeter=0;" edge="1" parent="1" source="szrJrrXE8Vr_B5hQflwQ-309" target="szrJrrXE8Vr_B5hQflwQ-257">
          <mxGeometry x="-0.1111" width="160" relative="1" as="geometry">
            <mxPoint x="3306.5" y="732.5" as="sourcePoint" />
            <mxPoint x="2778.5" y="732.5" as="targetPoint" />
            <mxPoint as="offset" />
          </mxGeometry>
        </mxCell>
        <mxCell id="szrJrrXE8Vr_B5hQflwQ-311" value="Поиск по ФИО в просмотре контента" style="ellipse;whiteSpace=wrap;html=1;" vertex="1" parent="1">
          <mxGeometry x="3030" y="800" width="140" height="70" as="geometry" />
        </mxCell>
        <mxCell id="szrJrrXE8Vr_B5hQflwQ-312" value="Редактировать строку&lt;br style=&quot;border-color: var(--border-color);&quot;&gt;в просмотре контента" style="ellipse;whiteSpace=wrap;html=1;" vertex="1" parent="1">
          <mxGeometry x="3160" y="890" width="140" height="70" as="geometry" />
        </mxCell>
        <mxCell id="szrJrrXE8Vr_B5hQflwQ-313" value="&amp;lt;&amp;lt;extend&amp;gt;&amp;gt;" style="endArrow=open;endSize=12;dashed=1;html=1;rounded=0;exitX=0;exitY=0.5;exitDx=0;exitDy=0;entryX=0.5;entryY=0;entryDx=0;entryDy=0;endFill=0;startArrow=none;startFill=0;" edge="1" parent="1" source="szrJrrXE8Vr_B5hQflwQ-307" target="szrJrrXE8Vr_B5hQflwQ-257">
          <mxGeometry x="-0.1111" width="160" relative="1" as="geometry">
            <mxPoint x="2966.5" y="724.5" as="sourcePoint" />
            <mxPoint x="2686.5" y="1000.5" as="targetPoint" />
            <mxPoint as="offset" />
          </mxGeometry>
        </mxCell>
        <mxCell id="szrJrrXE8Vr_B5hQflwQ-314" value="&amp;lt;&amp;lt;extend&amp;gt;&amp;gt;" style="endArrow=open;endSize=12;dashed=1;html=1;rounded=0;exitX=0;exitY=0.5;exitDx=0;exitDy=0;entryX=0.718;entryY=0.071;entryDx=0;entryDy=0;entryPerimeter=0;endFill=0;startArrow=none;startFill=0;" edge="1" parent="1" source="szrJrrXE8Vr_B5hQflwQ-308" target="szrJrrXE8Vr_B5hQflwQ-257">
          <mxGeometry x="-0.1111" width="160" relative="1" as="geometry">
            <mxPoint x="2996.5" y="787.5" as="sourcePoint" />
            <mxPoint x="2726.5" y="1017.5" as="targetPoint" />
            <mxPoint as="offset" />
          </mxGeometry>
        </mxCell>
        <mxCell id="szrJrrXE8Vr_B5hQflwQ-315" value="&amp;lt;&amp;lt;extend&amp;gt;&amp;gt;" style="endArrow=open;endSize=12;dashed=1;html=1;rounded=0;exitX=0;exitY=0.5;exitDx=0;exitDy=0;entryX=1.015;entryY=0.511;entryDx=0;entryDy=0;entryPerimeter=0;" edge="1" parent="1" source="szrJrrXE8Vr_B5hQflwQ-311" target="szrJrrXE8Vr_B5hQflwQ-257">
          <mxGeometry x="-0.1111" width="160" relative="1" as="geometry">
            <mxPoint x="2996.5" y="872.5" as="sourcePoint" />
            <mxPoint x="2756.5" y="1022.5" as="targetPoint" />
            <mxPoint as="offset" />
          </mxGeometry>
        </mxCell>
        <mxCell id="szrJrrXE8Vr_B5hQflwQ-316" value="&amp;lt;&amp;lt;extend&amp;gt;&amp;gt;" style="endArrow=open;endSize=12;dashed=1;html=1;rounded=0;exitX=0;exitY=0.5;exitDx=0;exitDy=0;entryX=0.933;entryY=0.756;entryDx=0;entryDy=0;entryPerimeter=0;" edge="1" parent="1" source="szrJrrXE8Vr_B5hQflwQ-312" target="szrJrrXE8Vr_B5hQflwQ-257">
          <mxGeometry x="-0.1111" width="160" relative="1" as="geometry">
            <mxPoint x="2996.5" y="957.5" as="sourcePoint" />
            <mxPoint x="2781.5" y="1030.5" as="targetPoint" />
            <mxPoint as="offset" />
          </mxGeometry>
        </mxCell>
        <mxCell id="szrJrrXE8Vr_B5hQflwQ-317" value="Настроить&lt;br style=&quot;border-color: var(--border-color); font-size: 11px;&quot;&gt;&amp;nbsp;отображение&amp;nbsp;таблицы&lt;br style=&quot;border-color: var(--border-color); font-size: 11px;&quot;&gt;списка амбассадоров" style="ellipse;whiteSpace=wrap;html=1;fontSize=11;" vertex="1" parent="1">
          <mxGeometry x="3010" y="-217.5" width="140" height="70" as="geometry" />
        </mxCell>
        <mxCell id="szrJrrXE8Vr_B5hQflwQ-318" value="Удалить строку&lt;br style=&quot;border-color: var(--border-color); font-size: 11px;&quot;&gt;в&amp;nbsp;списке амбассадоров" style="ellipse;whiteSpace=wrap;html=1;fontSize=11;" vertex="1" parent="1">
          <mxGeometry x="3010" y="-37.5" width="140" height="70" as="geometry" />
        </mxCell>
        <mxCell id="szrJrrXE8Vr_B5hQflwQ-319" value="&amp;lt;&amp;lt;extend&amp;gt;&amp;gt;" style="endArrow=none;endSize=12;dashed=1;html=1;rounded=0;entryX=1;entryY=0.5;entryDx=0;entryDy=0;exitX=0.023;exitY=0.311;exitDx=0;exitDy=0;exitPerimeter=0;endFill=0;startArrow=open;startFill=0;" edge="1" parent="1" source="szrJrrXE8Vr_B5hQflwQ-248" target="szrJrrXE8Vr_B5hQflwQ-318">
          <mxGeometry x="-0.1111" width="160" relative="1" as="geometry">
            <mxPoint x="3260" y="70" as="sourcePoint" />
            <mxPoint x="3140" y="160" as="targetPoint" />
            <mxPoint as="offset" />
          </mxGeometry>
        </mxCell>
        <mxCell id="szrJrrXE8Vr_B5hQflwQ-320" value="&amp;lt;&amp;lt;extend&amp;gt;&amp;gt;" style="endArrow=open;endSize=12;dashed=1;html=1;rounded=0;entryX=0.323;entryY=0.054;entryDx=0;entryDy=0;exitX=1;exitY=0.5;exitDx=0;exitDy=0;entryPerimeter=0;endFill=0;startArrow=none;startFill=0;" edge="1" parent="1" source="szrJrrXE8Vr_B5hQflwQ-317" target="szrJrrXE8Vr_B5hQflwQ-248">
          <mxGeometry x="-0.1111" width="160" relative="1" as="geometry">
            <mxPoint x="3342" y="-80" as="sourcePoint" />
            <mxPoint x="3342" y="30" as="targetPoint" />
            <mxPoint as="offset" />
          </mxGeometry>
        </mxCell>
        <mxCell id="szrJrrXE8Vr_B5hQflwQ-321" value="Посмотреть промокод" style="ellipse;whiteSpace=wrap;html=1;" vertex="1" parent="1">
          <mxGeometry x="2820.5" y="-380" width="140" height="70" as="geometry" />
        </mxCell>
        <mxCell id="szrJrrXE8Vr_B5hQflwQ-323" value="Фильтрация &lt;br&gt;по ключевым параметрам&lt;br style=&quot;border-color: var(--border-color); font-size: 11px;&quot;&gt;просмотра промокода" style="ellipse;whiteSpace=wrap;html=1;fontSize=11;" vertex="1" parent="1">
          <mxGeometry x="3080" y="-687.5" width="140" height="70" as="geometry" />
        </mxCell>
        <mxCell id="szrJrrXE8Vr_B5hQflwQ-324" value="Настроить&lt;br style=&quot;border-color: var(--border-color); font-size: 11px;&quot;&gt;&amp;nbsp;отображение&amp;nbsp;таблицы&lt;br style=&quot;border-color: var(--border-color); font-size: 11px;&quot;&gt;просмотра промокода" style="ellipse;whiteSpace=wrap;html=1;fontSize=11;" vertex="1" parent="1">
          <mxGeometry x="3080" y="-530" width="140" height="70" as="geometry" />
        </mxCell>
        <mxCell id="szrJrrXE8Vr_B5hQflwQ-325" value="Экспортировать данные&lt;br style=&quot;font-size: 11px;&quot;&gt;просмотра промокода" style="ellipse;whiteSpace=wrap;html=1;fontSize=11;" vertex="1" parent="1">
          <mxGeometry x="3080" y="-450" width="140" height="70" as="geometry" />
        </mxCell>
        <mxCell id="szrJrrXE8Vr_B5hQflwQ-326" value="Поиск по ФИО в просмотре промокода" style="ellipse;whiteSpace=wrap;html=1;" vertex="1" parent="1">
          <mxGeometry x="3080" y="-370" width="140" height="70" as="geometry" />
        </mxCell>
        <mxCell id="szrJrrXE8Vr_B5hQflwQ-327" value="&amp;lt;&amp;lt;extend&amp;gt;&amp;gt;" style="endArrow=open;endSize=12;dashed=1;html=1;rounded=0;entryX=1;entryY=0.5;entryDx=0;entryDy=0;exitX=0;exitY=0.5;exitDx=0;exitDy=0;" edge="1" parent="1" source="szrJrrXE8Vr_B5hQflwQ-326" target="szrJrrXE8Vr_B5hQflwQ-321">
          <mxGeometry x="-0.1111" width="160" relative="1" as="geometry">
            <mxPoint x="3470" y="-125" as="sourcePoint" />
            <mxPoint x="3330" y="-125" as="targetPoint" />
            <mxPoint as="offset" />
          </mxGeometry>
        </mxCell>
        <mxCell id="szrJrrXE8Vr_B5hQflwQ-328" value="&amp;lt;&amp;lt;extend&amp;gt;&amp;gt;" style="endArrow=open;endSize=12;dashed=1;html=1;rounded=0;entryX=0.747;entryY=0.056;entryDx=0;entryDy=0;exitX=0;exitY=0.5;exitDx=0;exitDy=0;entryPerimeter=0;endFill=0;startArrow=none;startFill=0;" edge="1" parent="1" source="szrJrrXE8Vr_B5hQflwQ-324" target="szrJrrXE8Vr_B5hQflwQ-321">
          <mxGeometry x="-0.1111" width="160" relative="1" as="geometry">
            <mxPoint x="3480" y="-115" as="sourcePoint" />
            <mxPoint x="3340" y="-115" as="targetPoint" />
            <mxPoint as="offset" />
          </mxGeometry>
        </mxCell>
        <mxCell id="szrJrrXE8Vr_B5hQflwQ-329" value="&amp;lt;&amp;lt;extend&amp;gt;&amp;gt;" style="endArrow=open;endSize=12;dashed=1;html=1;rounded=0;entryX=0.5;entryY=0;entryDx=0;entryDy=0;exitX=0;exitY=0.5;exitDx=0;exitDy=0;endFill=0;startArrow=none;startFill=0;" edge="1" parent="1" source="szrJrrXE8Vr_B5hQflwQ-323" target="szrJrrXE8Vr_B5hQflwQ-321">
          <mxGeometry x="-0.1111" width="160" relative="1" as="geometry">
            <mxPoint x="3490" y="-105" as="sourcePoint" />
            <mxPoint x="3350" y="-105" as="targetPoint" />
            <mxPoint as="offset" />
          </mxGeometry>
        </mxCell>
        <mxCell id="szrJrrXE8Vr_B5hQflwQ-330" value="Редактировать строку&lt;br style=&quot;border-color: var(--border-color); font-size: 11px;&quot;&gt;в просмотре промокода" style="ellipse;whiteSpace=wrap;html=1;fontSize=11;" vertex="1" parent="1">
          <mxGeometry x="3170" y="-282.5" width="140" height="70" as="geometry" />
        </mxCell>
        <mxCell id="szrJrrXE8Vr_B5hQflwQ-331" value="&amp;lt;&amp;lt;extend&amp;gt;&amp;gt;" style="endArrow=open;endSize=12;dashed=1;html=1;rounded=0;exitX=0;exitY=0.5;exitDx=0;exitDy=0;entryX=1;entryY=1;entryDx=0;entryDy=0;" edge="1" parent="1" source="szrJrrXE8Vr_B5hQflwQ-330" target="szrJrrXE8Vr_B5hQflwQ-321">
          <mxGeometry x="-0.1111" width="160" relative="1" as="geometry">
            <mxPoint x="3205.5" y="-174.5" as="sourcePoint" />
            <mxPoint x="2995.5" y="-79.5" as="targetPoint" />
            <mxPoint as="offset" />
          </mxGeometry>
        </mxCell>
        <mxCell id="szrJrrXE8Vr_B5hQflwQ-332" value="&amp;lt;&amp;lt;extend&amp;gt;&amp;gt;" style="endArrow=open;endSize=12;dashed=1;html=1;rounded=0;entryX=1;entryY=0;entryDx=0;entryDy=0;exitX=0;exitY=0.5;exitDx=0;exitDy=0;" edge="1" parent="1" source="szrJrrXE8Vr_B5hQflwQ-325" target="szrJrrXE8Vr_B5hQflwQ-321">
          <mxGeometry x="-0.1111" width="160" relative="1" as="geometry">
            <mxPoint x="3150" y="-350" as="sourcePoint" />
            <mxPoint x="3000" y="-135" as="targetPoint" />
            <mxPoint as="offset" />
          </mxGeometry>
        </mxCell>
        <mxCell id="szrJrrXE8Vr_B5hQflwQ-333" value="&amp;lt;&amp;lt;extend&amp;gt;&amp;gt;" style="endArrow=open;endSize=12;dashed=1;html=1;rounded=0;exitX=0;exitY=0.5;exitDx=0;exitDy=0;" edge="1" parent="1" source="szrJrrXE8Vr_B5hQflwQ-254" target="szrJrrXE8Vr_B5hQflwQ-248">
          <mxGeometry x="-0.1111" width="160" relative="1" as="geometry">
            <mxPoint x="3492" y="155" as="sourcePoint" />
            <mxPoint x="3391" y="90" as="targetPoint" />
            <mxPoint as="offset" />
          </mxGeometry>
        </mxCell>
        <mxCell id="szrJrrXE8Vr_B5hQflwQ-334" value="Изменить статус амбассадора в просмотре амбассадоров" style="ellipse;whiteSpace=wrap;html=1;fontSize=11;" vertex="1" parent="1">
          <mxGeometry x="3039.5" y="90" width="140" height="70" as="geometry" />
        </mxCell>
        <mxCell id="szrJrrXE8Vr_B5hQflwQ-335" value="Изменить статус онбординга в просмотре амбассадоров" style="ellipse;whiteSpace=wrap;html=1;fontSize=11;" vertex="1" parent="1">
          <mxGeometry x="3039.5" y="177.5" width="140" height="70" as="geometry" />
        </mxCell>
        <mxCell id="szrJrrXE8Vr_B5hQflwQ-336" value="&amp;lt;&amp;lt;extend&amp;gt;&amp;gt;" style="endArrow=open;endSize=12;dashed=1;html=1;rounded=0;entryX=0;entryY=1;entryDx=0;entryDy=0;exitX=1;exitY=0.5;exitDx=0;exitDy=0;" edge="1" parent="1" source="szrJrrXE8Vr_B5hQflwQ-334" target="szrJrrXE8Vr_B5hQflwQ-248">
          <mxGeometry x="-0.1111" width="160" relative="1" as="geometry">
            <mxPoint x="3492" y="155" as="sourcePoint" />
            <mxPoint x="3392" y="90" as="targetPoint" />
            <mxPoint as="offset" />
          </mxGeometry>
        </mxCell>
        <mxCell id="szrJrrXE8Vr_B5hQflwQ-337" value="&amp;lt;&amp;lt;extend&amp;gt;&amp;gt;" style="endArrow=open;endSize=12;dashed=1;html=1;rounded=0;entryX=0.26;entryY=0.935;entryDx=0;entryDy=0;exitX=1;exitY=0.5;exitDx=0;exitDy=0;entryPerimeter=0;" edge="1" parent="1" source="szrJrrXE8Vr_B5hQflwQ-335" target="szrJrrXE8Vr_B5hQflwQ-248">
          <mxGeometry x="-0.1111" width="160" relative="1" as="geometry">
            <mxPoint x="3750" y="15" as="sourcePoint" />
            <mxPoint x="3612" y="40" as="targetPoint" />
            <mxPoint as="offset" />
          </mxGeometry>
        </mxCell>
        <mxCell id="szrJrrXE8Vr_B5hQflwQ-338" value="Изменить статус &quot;Гайд&quot; &lt;br&gt;в просмотре контента" style="ellipse;whiteSpace=wrap;html=1;fontSize=11;" vertex="1" parent="1">
          <mxGeometry x="3158.5" y="980" width="140" height="70" as="geometry" />
        </mxCell>
        <mxCell id="szrJrrXE8Vr_B5hQflwQ-339" value="&amp;lt;&amp;lt;extend&amp;gt;&amp;gt;" style="endArrow=open;endSize=12;dashed=1;html=1;rounded=0;exitX=0;exitY=0.5;exitDx=0;exitDy=0;entryX=0.5;entryY=1;entryDx=0;entryDy=0;" edge="1" parent="1" source="szrJrrXE8Vr_B5hQflwQ-338" target="szrJrrXE8Vr_B5hQflwQ-257">
          <mxGeometry x="-0.1111" width="160" relative="1" as="geometry">
            <mxPoint x="3152.5" y="1142.5" as="sourcePoint" />
            <mxPoint x="2785.5" y="1073.5" as="targetPoint" />
            <mxPoint as="offset" />
          </mxGeometry>
        </mxCell>
        <mxCell id="szrJrrXE8Vr_B5hQflwQ-340" value="Выбрать период во вкладке &quot;Бюджет&quot; бюджет на мерч" style="ellipse;whiteSpace=wrap;html=1;" vertex="1" parent="1">
          <mxGeometry x="3670" y="1190.9700000000003" width="140" height="70" as="geometry" />
        </mxCell>
        <mxCell id="szrJrrXE8Vr_B5hQflwQ-341" value="&amp;lt;&amp;lt;extend&amp;gt;&amp;gt;" style="endArrow=open;endSize=12;dashed=1;html=1;rounded=0;exitX=0;exitY=0.5;exitDx=0;exitDy=0;entryX=0.936;entryY=0.752;entryDx=0;entryDy=0;entryPerimeter=0;" edge="1" parent="1" source="szrJrrXE8Vr_B5hQflwQ-340" target="szrJrrXE8Vr_B5hQflwQ-263">
          <mxGeometry x="-0.1111" width="160" relative="1" as="geometry">
            <mxPoint x="3741.5" y="1785.5" as="sourcePoint" />
            <mxPoint x="3642.2999999999997" y="1794.1799999999998" as="targetPoint" />
            <mxPoint as="offset" />
          </mxGeometry>
        </mxCell>
        <mxCell id="szrJrrXE8Vr_B5hQflwQ-342" value="Экспортировать&lt;br style=&quot;border-color: var(--border-color); font-size: 11px;&quot;&gt;данные в просмотре программы лояльности" style="ellipse;whiteSpace=wrap;html=1;fontSize=11;" vertex="1" parent="1">
          <mxGeometry x="3018.5" y="1440" width="140" height="70" as="geometry" />
        </mxCell>
        <mxCell id="szrJrrXE8Vr_B5hQflwQ-343" value="&amp;lt;&amp;lt;extend&amp;gt;&amp;gt;" style="endArrow=open;endSize=12;dashed=1;html=1;rounded=0;exitX=0;exitY=0.5;exitDx=0;exitDy=0;entryX=0.959;entryY=0.342;entryDx=0;entryDy=0;entryPerimeter=0;" edge="1" parent="1" source="szrJrrXE8Vr_B5hQflwQ-342" target="szrJrrXE8Vr_B5hQflwQ-264">
          <mxGeometry x="-0.1111" width="160" relative="1" as="geometry">
            <mxPoint x="3353" y="1857.5" as="sourcePoint" />
            <mxPoint x="3175" y="1886.5" as="targetPoint" />
            <mxPoint as="offset" />
          </mxGeometry>
        </mxCell>
        <mxCell id="szrJrrXE8Vr_B5hQflwQ-344" value="Распределить&amp;nbsp;&lt;br&gt;вопросы по категориям" style="ellipse;whiteSpace=wrap;html=1;" vertex="1" parent="1">
          <mxGeometry x="2820.5" y="1959.9999999999995" width="140" height="70" as="geometry" />
        </mxCell>
        <mxCell id="szrJrrXE8Vr_B5hQflwQ-345" value="&amp;lt;&amp;lt;extend&amp;gt;&amp;gt;" style="endArrow=open;endSize=12;dashed=1;html=1;rounded=0;entryX=0.818;entryY=0.891;entryDx=0;entryDy=0;entryPerimeter=0;exitX=0;exitY=0.5;exitDx=0;exitDy=0;" edge="1" parent="1" source="szrJrrXE8Vr_B5hQflwQ-344" target="szrJrrXE8Vr_B5hQflwQ-267">
          <mxGeometry x="-0.1111" width="160" relative="1" as="geometry">
            <mxPoint x="2830.5" y="1924.9999999999995" as="sourcePoint" />
            <mxPoint x="2698.5" y="1791.9999999999995" as="targetPoint" />
            <mxPoint as="offset" />
          </mxGeometry>
        </mxCell>
        <mxCell id="szrJrrXE8Vr_B5hQflwQ-347" value="&amp;lt;&amp;lt;extend&amp;gt;&amp;gt;" style="endArrow=none;endSize=12;dashed=1;html=1;rounded=0;entryX=0.709;entryY=0.046;entryDx=0;entryDy=0;exitX=0.5;exitY=1;exitDx=0;exitDy=0;entryPerimeter=0;endFill=0;startArrow=open;startFill=0;" edge="1" parent="1" source="szrJrrXE8Vr_B5hQflwQ-246" target="szrJrrXE8Vr_B5hQflwQ-259">
          <mxGeometry x="-0.1111" width="160" relative="1" as="geometry">
            <mxPoint x="3750" y="15" as="sourcePoint" />
            <mxPoint x="3623" y="47" as="targetPoint" />
            <mxPoint as="offset" />
          </mxGeometry>
        </mxCell>
        <mxCell id="szrJrrXE8Vr_B5hQflwQ-348" value="Отменить действия&amp;nbsp;&lt;br style=&quot;font-size: 11px;&quot;&gt;в списке амбассадоров" style="ellipse;whiteSpace=wrap;html=1;fontSize=11;" vertex="1" parent="1">
          <mxGeometry x="3627.5" y="40" width="140" height="70" as="geometry" />
        </mxCell>
        <mxCell id="szrJrrXE8Vr_B5hQflwQ-349" value="&amp;lt;&amp;lt;extend&amp;gt;&amp;gt;" style="endArrow=open;endSize=12;dashed=1;html=1;rounded=0;exitX=0;exitY=0.5;exitDx=0;exitDy=0;entryX=1;entryY=0.5;entryDx=0;entryDy=0;" edge="1" parent="1" source="szrJrrXE8Vr_B5hQflwQ-348" target="szrJrrXE8Vr_B5hQflwQ-248">
          <mxGeometry x="-0.1111" width="160" relative="1" as="geometry">
            <mxPoint x="3540" y="-5" as="sourcePoint" />
            <mxPoint x="3399" y="45" as="targetPoint" />
            <mxPoint as="offset" />
          </mxGeometry>
        </mxCell>
        <mxCell id="szrJrrXE8Vr_B5hQflwQ-350" value="Добавить строку в посмотреть список амбассадоров" style="ellipse;whiteSpace=wrap;html=1;" vertex="1" parent="1">
          <mxGeometry x="3010" y="-127.5" width="140" height="70" as="geometry" />
        </mxCell>
        <mxCell id="szrJrrXE8Vr_B5hQflwQ-351" value="&amp;lt;&amp;lt;include&amp;gt;&amp;gt;" style="endArrow=none;endSize=12;dashed=1;html=1;rounded=0;entryX=0;entryY=0;entryDx=0;entryDy=0;exitX=1;exitY=0.5;exitDx=0;exitDy=0;endFill=0;startArrow=open;startFill=0;" edge="1" parent="1" source="szrJrrXE8Vr_B5hQflwQ-350" target="szrJrrXE8Vr_B5hQflwQ-248">
          <mxGeometry x="-0.1111" width="160" relative="1" as="geometry">
            <mxPoint x="3200" y="-115" as="sourcePoint" />
            <mxPoint x="3317" y="34" as="targetPoint" />
            <mxPoint as="offset" />
          </mxGeometry>
        </mxCell>
        <mxCell id="szrJrrXE8Vr_B5hQflwQ-354" value="Зарегистрироваться&lt;br&gt;в личном кабинете" style="ellipse;whiteSpace=wrap;html=1;" vertex="1" parent="1">
          <mxGeometry x="2891.5" y="-880" width="140" height="70" as="geometry" />
        </mxCell>
        <mxCell id="szrJrrXE8Vr_B5hQflwQ-355" value="&amp;lt;&amp;lt;extend&amp;gt;&amp;gt;" style="endArrow=open;endSize=6;dashed=1;html=1;rounded=0;entryX=0.767;entryY=0.036;entryDx=0;entryDy=0;exitX=0;exitY=0.5;exitDx=0;exitDy=0;entryPerimeter=0;" edge="1" parent="1" source="szrJrrXE8Vr_B5hQflwQ-354" target="szrJrrXE8Vr_B5hQflwQ-243">
          <mxGeometry x="-0.1111" width="160" relative="1" as="geometry">
            <mxPoint x="2755.5" y="1220" as="sourcePoint" />
            <mxPoint x="2685.5" y="1135" as="targetPoint" />
            <mxPoint as="offset" />
          </mxGeometry>
        </mxCell>
        <mxCell id="szrJrrXE8Vr_B5hQflwQ-356" value="Посмотреть историю изменений" style="ellipse;whiteSpace=wrap;html=1;" vertex="1" parent="1">
          <mxGeometry x="2470" y="-310.0000000000002" width="140" height="70" as="geometry" />
        </mxCell>
        <mxCell id="szrJrrXE8Vr_B5hQflwQ-358" value="Поиск в посмотреть вкладку&lt;br style=&quot;border-color: var(--border-color); font-size: 11px;&quot;&gt;&quot;Стоимость товара&quot;" style="ellipse;whiteSpace=wrap;html=1;" vertex="1" parent="1">
          <mxGeometry x="3495" y="1610" width="140" height="70" as="geometry" />
        </mxCell>
        <mxCell id="szrJrrXE8Vr_B5hQflwQ-359" value="&amp;lt;&amp;lt;extend&amp;gt;&amp;gt;" style="endArrow=open;endSize=12;dashed=1;html=1;rounded=0;exitX=0;exitY=0.5;exitDx=0;exitDy=0;entryX=0.693;entryY=0.98;entryDx=0;entryDy=0;endFill=0;startArrow=none;startFill=0;entryPerimeter=0;" edge="1" parent="1" source="szrJrrXE8Vr_B5hQflwQ-358" target="szrJrrXE8Vr_B5hQflwQ-287">
          <mxGeometry x="-0.1109" width="160" relative="1" as="geometry">
            <mxPoint x="3824.75" y="2122.5" as="sourcePoint" />
            <mxPoint x="3668.75" y="1953.5" as="targetPoint" />
            <mxPoint as="offset" />
          </mxGeometry>
        </mxCell>
        <mxCell id="szrJrrXE8Vr_B5hQflwQ-360" value="Редактировать строку&lt;br style=&quot;border-color: var(--border-color);&quot;&gt;в отправке мерча" style="ellipse;whiteSpace=wrap;html=1;" vertex="1" parent="1">
          <mxGeometry x="3781.5" y="627.5" width="140" height="70" as="geometry" />
        </mxCell>
        <mxCell id="szrJrrXE8Vr_B5hQflwQ-361" value="&amp;lt;&amp;lt;extend&amp;gt;&amp;gt;" style="endArrow=open;endSize=12;dashed=1;html=1;rounded=0;exitX=0;exitY=0.5;exitDx=0;exitDy=0;entryX=0.896;entryY=0.797;entryDx=0;entryDy=0;entryPerimeter=0;" edge="1" parent="1" source="szrJrrXE8Vr_B5hQflwQ-360" target="szrJrrXE8Vr_B5hQflwQ-258">
          <mxGeometry x="-0.1111" width="160" relative="1" as="geometry">
            <mxPoint x="3504.5" y="1752.5" as="sourcePoint" />
            <mxPoint x="3209.5" y="1569.5" as="targetPoint" />
            <mxPoint as="offset" />
          </mxGeometry>
        </mxCell>
        <mxCell id="szrJrrXE8Vr_B5hQflwQ-368" value="Авторизованный&lt;br&gt;пользователь" style="shape=umlActor;verticalLabelPosition=bottom;verticalAlign=top;html=1;" vertex="1" parent="1">
          <mxGeometry x="2340" y="50" width="30" height="60" as="geometry" />
        </mxCell>
        <mxCell id="szrJrrXE8Vr_B5hQflwQ-370" value="Неавторизованный&lt;br&gt;пользователь" style="shape=umlActor;verticalLabelPosition=bottom;verticalAlign=top;html=1;" vertex="1" parent="1">
          <mxGeometry x="2340" y="-537.5" width="30" height="60" as="geometry" />
        </mxCell>
        <mxCell id="szrJrrXE8Vr_B5hQflwQ-374" value="" style="endArrow=block;endFill=0;endSize=12;html=1;rounded=0;" edge="1" parent="1">
          <mxGeometry width="160" relative="1" as="geometry">
            <mxPoint x="2330" y="-430" as="sourcePoint" />
            <mxPoint x="2190" y="-250" as="targetPoint" />
          </mxGeometry>
        </mxCell>
        <mxCell id="szrJrrXE8Vr_B5hQflwQ-375" value="" style="endArrow=block;endFill=0;endSize=12;html=1;rounded=0;" edge="1" parent="1">
          <mxGeometry width="160" relative="1" as="geometry">
            <mxPoint x="2330" y="40" as="sourcePoint" />
            <mxPoint x="2200" y="-160" as="targetPoint" />
          </mxGeometry>
        </mxCell>
        <mxCell id="szrJrrXE8Vr_B5hQflwQ-378" value="Посмотреть профиль&lt;br&gt;личного кабинета" style="ellipse;whiteSpace=wrap;html=1;" vertex="1" parent="1">
          <mxGeometry x="3160" y="-860" width="140" height="70" as="geometry" />
        </mxCell>
        <mxCell id="szrJrrXE8Vr_B5hQflwQ-379" value="Выход &lt;br&gt;из личного кабинета" style="ellipse;whiteSpace=wrap;html=1;" vertex="1" parent="1">
          <mxGeometry x="2470" y="-225" width="140" height="70" as="geometry" />
        </mxCell>
        <mxCell id="szrJrrXE8Vr_B5hQflwQ-380" value="Редактировать профиль&lt;br style=&quot;font-size: 11px;&quot;&gt;в просмотре профиля&amp;nbsp;" style="ellipse;whiteSpace=wrap;html=1;fontSize=11;" vertex="1" parent="1">
          <mxGeometry x="3420" y="-863.75" width="140" height="70" as="geometry" />
        </mxCell>
        <mxCell id="szrJrrXE8Vr_B5hQflwQ-384" value="" style="endArrow=none;html=1;rounded=0;entryX=0;entryY=0.5;entryDx=0;entryDy=0;" edge="1" parent="1" target="szrJrrXE8Vr_B5hQflwQ-321">
          <mxGeometry width="50" height="50" relative="1" as="geometry">
            <mxPoint x="2400" y="90" as="sourcePoint" />
            <mxPoint x="1980" y="140" as="targetPoint" />
          </mxGeometry>
        </mxCell>
        <mxCell id="szrJrrXE8Vr_B5hQflwQ-385" value="" style="endArrow=none;html=1;rounded=0;entryX=0;entryY=0.5;entryDx=0;entryDy=0;" edge="1" parent="1" target="szrJrrXE8Vr_B5hQflwQ-248">
          <mxGeometry width="50" height="50" relative="1" as="geometry">
            <mxPoint x="2410" y="100" as="sourcePoint" />
            <mxPoint x="2600" y="200" as="targetPoint" />
          </mxGeometry>
        </mxCell>
        <mxCell id="szrJrrXE8Vr_B5hQflwQ-388" value="" style="endArrow=none;html=1;rounded=0;entryX=0;entryY=0.5;entryDx=0;entryDy=0;" edge="1" parent="1" target="szrJrrXE8Vr_B5hQflwQ-243">
          <mxGeometry width="50" height="50" relative="1" as="geometry">
            <mxPoint x="2400" y="-530" as="sourcePoint" />
            <mxPoint x="2710" y="-600" as="targetPoint" />
          </mxGeometry>
        </mxCell>
        <mxCell id="szrJrrXE8Vr_B5hQflwQ-389" value="" style="endArrow=none;html=1;rounded=0;exitX=0;exitY=0.5;exitDx=0;exitDy=0;" edge="1" parent="1" source="szrJrrXE8Vr_B5hQflwQ-257">
          <mxGeometry width="50" height="50" relative="1" as="geometry">
            <mxPoint x="2660" y="550" as="sourcePoint" />
            <mxPoint x="2420" y="150" as="targetPoint" />
          </mxGeometry>
        </mxCell>
        <mxCell id="szrJrrXE8Vr_B5hQflwQ-390" value="" style="endArrow=none;html=1;rounded=0;exitX=0;exitY=0.5;exitDx=0;exitDy=0;" edge="1" parent="1" source="szrJrrXE8Vr_B5hQflwQ-258">
          <mxGeometry width="50" height="50" relative="1" as="geometry">
            <mxPoint x="2970" y="770" as="sourcePoint" />
            <mxPoint x="2420" y="120" as="targetPoint" />
          </mxGeometry>
        </mxCell>
        <mxCell id="szrJrrXE8Vr_B5hQflwQ-393" value="" style="endArrow=none;html=1;rounded=0;exitX=0;exitY=0.5;exitDx=0;exitDy=0;" edge="1" parent="1" source="szrJrrXE8Vr_B5hQflwQ-263">
          <mxGeometry width="50" height="50" relative="1" as="geometry">
            <mxPoint x="4330" y="950" as="sourcePoint" />
            <mxPoint x="2410" y="160" as="targetPoint" />
          </mxGeometry>
        </mxCell>
        <mxCell id="szrJrrXE8Vr_B5hQflwQ-394" value="" style="endArrow=none;html=1;rounded=0;entryX=0;entryY=0.5;entryDx=0;entryDy=0;" edge="1" parent="1" target="szrJrrXE8Vr_B5hQflwQ-264">
          <mxGeometry width="50" height="50" relative="1" as="geometry">
            <mxPoint x="2390" y="170" as="sourcePoint" />
            <mxPoint x="3550" y="1510" as="targetPoint" />
          </mxGeometry>
        </mxCell>
        <mxCell id="szrJrrXE8Vr_B5hQflwQ-395" value="" style="endArrow=none;html=1;rounded=0;exitX=0;exitY=0.5;exitDx=0;exitDy=0;" edge="1" parent="1" source="szrJrrXE8Vr_B5hQflwQ-267">
          <mxGeometry width="50" height="50" relative="1" as="geometry">
            <mxPoint x="3340" y="1540" as="sourcePoint" />
            <mxPoint x="2380" y="170" as="targetPoint" />
          </mxGeometry>
        </mxCell>
        <mxCell id="szrJrrXE8Vr_B5hQflwQ-396" value="&amp;lt;&amp;lt;extend&amp;gt;&amp;gt;" style="endArrow=open;endSize=6;dashed=1;html=1;rounded=0;entryX=1;entryY=1;entryDx=0;entryDy=0;exitX=0;exitY=0.5;exitDx=0;exitDy=0;" edge="1" parent="1" source="szrJrrXE8Vr_B5hQflwQ-247" target="szrJrrXE8Vr_B5hQflwQ-243">
          <mxGeometry x="-0.1111" width="160" relative="1" as="geometry">
            <mxPoint x="2891.5" y="-865" as="sourcePoint" />
            <mxPoint x="2718.5" y="-781" as="targetPoint" />
            <mxPoint as="offset" />
          </mxGeometry>
        </mxCell>
        <mxCell id="szrJrrXE8Vr_B5hQflwQ-397" value="&amp;lt;&amp;lt;extend&amp;gt;&amp;gt;" style="endArrow=open;endSize=6;dashed=1;html=1;rounded=0;entryX=1;entryY=0;entryDx=0;entryDy=0;exitX=0;exitY=0.5;exitDx=0;exitDy=0;" edge="1" parent="1" source="szrJrrXE8Vr_B5hQflwQ-378" target="szrJrrXE8Vr_B5hQflwQ-247">
          <mxGeometry x="-0.1111" width="160" relative="1" as="geometry">
            <mxPoint x="2901.5" y="-855" as="sourcePoint" />
            <mxPoint x="2728.5" y="-771" as="targetPoint" />
            <mxPoint as="offset" />
          </mxGeometry>
        </mxCell>
        <mxCell id="szrJrrXE8Vr_B5hQflwQ-398" value="&amp;lt;&amp;lt;extend&amp;gt;&amp;gt;" style="endArrow=open;endSize=6;dashed=1;html=1;rounded=0;entryX=0.998;entryY=0.464;entryDx=0;entryDy=0;exitX=0;exitY=0.5;exitDx=0;exitDy=0;entryPerimeter=0;" edge="1" parent="1" source="szrJrrXE8Vr_B5hQflwQ-380" target="szrJrrXE8Vr_B5hQflwQ-378">
          <mxGeometry x="-0.1111" width="160" relative="1" as="geometry">
            <mxPoint x="2911.5" y="-845" as="sourcePoint" />
            <mxPoint x="2738.5" y="-761" as="targetPoint" />
            <mxPoint as="offset" />
          </mxGeometry>
        </mxCell>
        <mxCell id="szrJrrXE8Vr_B5hQflwQ-403" value="" style="endArrow=none;html=1;rounded=0;entryX=0;entryY=0.5;entryDx=0;entryDy=0;" edge="1" parent="1" target="szrJrrXE8Vr_B5hQflwQ-356">
          <mxGeometry width="50" height="50" relative="1" as="geometry">
            <mxPoint x="2370" y="30" as="sourcePoint" />
            <mxPoint x="2150" y="20" as="targetPoint" />
          </mxGeometry>
        </mxCell>
        <mxCell id="bX1RfHsGIdNN6RCCjQnQ-3" value="Уведомления" style="ellipse;whiteSpace=wrap;html=1;" vertex="1" parent="1">
          <mxGeometry x="2470" y="-390" width="140" height="70" as="geometry" />
        </mxCell>
        <mxCell id="bX1RfHsGIdNN6RCCjQnQ-4" value="" style="endArrow=none;html=1;rounded=0;entryX=0;entryY=0.5;entryDx=0;entryDy=0;" edge="1" parent="1" target="bX1RfHsGIdNN6RCCjQnQ-3">
          <mxGeometry width="50" height="50" relative="1" as="geometry">
            <mxPoint x="2360" y="30" as="sourcePoint" />
            <mxPoint x="2700" y="-200" as="targetPoint" />
          </mxGeometry>
        </mxCell>
        <mxCell id="L_lRhDQkdML9LVh_LCEE-1" value="&lt;div&gt;&lt;br&gt;&lt;/div&gt;Экспортировать данные&lt;div&gt;&amp;nbsp;в посмотреть вкладку&lt;br style=&quot;border-color: var(--border-color); font-size: 11px;&quot;&gt;&quot;Стоимость товара&quot;&lt;/div&gt;" style="ellipse;whiteSpace=wrap;html=1;fontSize=11;" vertex="1" parent="1">
          <mxGeometry x="3495" y="1700" width="140" height="70" as="geometry" />
        </mxCell>
        <mxCell id="L_lRhDQkdML9LVh_LCEE-2" value="&amp;lt;&amp;lt;extend&amp;gt;&amp;gt;" style="endArrow=open;endSize=12;dashed=1;html=1;rounded=0;exitX=0;exitY=0.5;exitDx=0;exitDy=0;entryX=0.5;entryY=1;entryDx=0;entryDy=0;endFill=0;startArrow=none;startFill=0;" edge="1" parent="1" source="L_lRhDQkdML9LVh_LCEE-1" target="szrJrrXE8Vr_B5hQflwQ-287">
          <mxGeometry x="-0.1109" width="160" relative="1" as="geometry">
            <mxPoint x="3505" y="1706" as="sourcePoint" />
            <mxPoint x="3345" y="1427" as="targetPoint" />
            <mxPoint as="offset" />
          </mxGeometry>
        </mxCell>
        <mxCell id="L_lRhDQkdML9LVh_LCEE-3" value="Сортировка&lt;br&gt;данных&lt;br style=&quot;border-color: var(--border-color); font-size: 11px;&quot;&gt;просмотра промокода" style="ellipse;whiteSpace=wrap;html=1;fontSize=11;" vertex="1" parent="1">
          <mxGeometry x="3080" y="-607.5" width="140" height="70" as="geometry" />
        </mxCell>
        <mxCell id="L_lRhDQkdML9LVh_LCEE-4" value="&amp;lt;&amp;lt;extend&amp;gt;&amp;gt;" style="endArrow=open;endSize=12;dashed=1;html=1;rounded=0;entryX=0.638;entryY=0.037;entryDx=0;entryDy=0;exitX=0;exitY=0.5;exitDx=0;exitDy=0;endFill=0;startArrow=none;startFill=0;entryPerimeter=0;" edge="1" parent="1" source="L_lRhDQkdML9LVh_LCEE-3" target="szrJrrXE8Vr_B5hQflwQ-321">
          <mxGeometry x="-0.1111" width="160" relative="1" as="geometry">
            <mxPoint x="3090" y="-642" as="sourcePoint" />
            <mxPoint x="2901" y="-370" as="targetPoint" />
            <mxPoint as="offset" />
          </mxGeometry>
        </mxCell>
        <mxCell id="L_lRhDQkdML9LVh_LCEE-5" value="Сортировать данные&lt;br&gt;амбассадоров" style="ellipse;whiteSpace=wrap;html=1;" vertex="1" parent="1">
          <mxGeometry x="3624.75" y="-147.5" width="140" height="70" as="geometry" />
        </mxCell>
        <mxCell id="L_lRhDQkdML9LVh_LCEE-6" value="&amp;lt;&amp;lt;extend&amp;gt;&amp;gt;" style="endArrow=open;endSize=12;dashed=1;html=1;rounded=0;entryX=0.872;entryY=0.169;entryDx=0;entryDy=0;exitX=0;exitY=0.5;exitDx=0;exitDy=0;endFill=0;startArrow=none;startFill=0;entryPerimeter=0;" edge="1" parent="1" source="L_lRhDQkdML9LVh_LCEE-5" target="szrJrrXE8Vr_B5hQflwQ-248">
          <mxGeometry x="-0.1111" width="160" relative="1" as="geometry">
            <mxPoint x="3630" y="-185" as="sourcePoint" />
            <mxPoint x="3383" y="33" as="targetPoint" />
            <mxPoint as="offset" />
          </mxGeometry>
        </mxCell>
        <mxCell id="L_lRhDQkdML9LVh_LCEE-7" value="Сортировка&lt;br style=&quot;border-color: var(--border-color);&quot;&gt;просмотра контента" style="ellipse;whiteSpace=wrap;html=1;" vertex="1" parent="1">
          <mxGeometry x="3030" y="557.5" width="140" height="70" as="geometry" />
        </mxCell>
        <mxCell id="L_lRhDQkdML9LVh_LCEE-8" value="&amp;lt;&amp;lt;extend&amp;gt;&amp;gt;" style="endArrow=open;endSize=12;dashed=1;html=1;rounded=0;exitX=0;exitY=0.5;exitDx=0;exitDy=0;entryX=0.636;entryY=0.013;entryDx=0;entryDy=0;endFill=0;startArrow=none;startFill=0;entryPerimeter=0;" edge="1" parent="1" source="L_lRhDQkdML9LVh_LCEE-7" target="szrJrrXE8Vr_B5hQflwQ-257">
          <mxGeometry x="-0.1111" width="160" relative="1" as="geometry">
            <mxPoint x="3040" y="523" as="sourcePoint" />
            <mxPoint x="2830" y="770" as="targetPoint" />
            <mxPoint as="offset" />
          </mxGeometry>
        </mxCell>
        <mxCell id="L_lRhDQkdML9LVh_LCEE-9" value="&amp;lt;&amp;lt;include&amp;gt;&amp;gt;" style="endArrow=open;endSize=6;dashed=1;html=1;rounded=0;entryX=0;entryY=0.5;entryDx=0;entryDy=0;exitX=0;exitY=0;exitDx=0;exitDy=0;fillColor=#f8cecc;strokeColor=#050505;" edge="1" parent="1" source="szrJrrXE8Vr_B5hQflwQ-257" target="szrJrrXE8Vr_B5hQflwQ-259">
          <mxGeometry x="-0.1111" width="160" relative="1" as="geometry">
            <mxPoint x="3464" y="513" as="sourcePoint" />
            <mxPoint x="3342" y="390" as="targetPoint" />
            <mxPoint as="offset" />
            <Array as="points">
              <mxPoint x="2980" y="480" />
            </Array>
          </mxGeometry>
        </mxCell>
        <mxCell id="L_lRhDQkdML9LVh_LCEE-10" value="Сортировка в&amp;nbsp;&lt;br style=&quot;border-color: var(--border-color);&quot;&gt;отправке мерча" style="ellipse;whiteSpace=wrap;html=1;" vertex="1" parent="1">
          <mxGeometry x="3744" y="370" width="140" height="70" as="geometry" />
        </mxCell>
        <mxCell id="L_lRhDQkdML9LVh_LCEE-11" value="&amp;lt;&amp;lt;extend&amp;gt;&amp;gt;" style="endArrow=open;endSize=12;dashed=1;html=1;rounded=0;exitX=0;exitY=0.5;exitDx=0;exitDy=0;endFill=0;startArrow=none;startFill=0;" edge="1" parent="1" source="L_lRhDQkdML9LVh_LCEE-10">
          <mxGeometry x="-0.1111" width="160" relative="1" as="geometry">
            <mxPoint x="3754" y="335" as="sourcePoint" />
            <mxPoint x="3500" y="510" as="targetPoint" />
            <mxPoint as="offset" />
          </mxGeometry>
        </mxCell>
        <mxCell id="L_lRhDQkdML9LVh_LCEE-12" value="Сортировка&lt;br style=&quot;font-size: 10px;&quot;&gt;бюджета на мерч во вкладке &quot;Бюджет&quot;" style="ellipse;whiteSpace=wrap;html=1;fontSize=10;" vertex="1" parent="1">
          <mxGeometry x="3665" y="950" width="140" height="70" as="geometry" />
        </mxCell>
        <mxCell id="L_lRhDQkdML9LVh_LCEE-13" value="&amp;lt;&amp;lt;extend&amp;gt;&amp;gt;" style="endArrow=open;endSize=12;dashed=1;html=1;rounded=0;exitX=0;exitY=0.5;exitDx=0;exitDy=0;endFill=0;startArrow=none;startFill=0;entryX=0.941;entryY=0.278;entryDx=0;entryDy=0;entryPerimeter=0;" edge="1" parent="1" source="L_lRhDQkdML9LVh_LCEE-12" target="szrJrrXE8Vr_B5hQflwQ-263">
          <mxGeometry x="-0.1111" width="160" relative="1" as="geometry">
            <mxPoint x="3680" y="915" as="sourcePoint" />
            <mxPoint x="3020" y="1204" as="targetPoint" />
            <mxPoint as="offset" />
          </mxGeometry>
        </mxCell>
        <mxCell id="L_lRhDQkdML9LVh_LCEE-14" value="&lt;font style=&quot;font-size: 10px;&quot;&gt;Фильтрация по ключевым параметрам&amp;nbsp;&lt;/font&gt;в программе лояльности" style="ellipse;whiteSpace=wrap;html=1;fontSize=10;" vertex="1" parent="1">
          <mxGeometry x="2820.5" y="1310.0000000000002" width="140" height="70" as="geometry" />
        </mxCell>
        <mxCell id="L_lRhDQkdML9LVh_LCEE-15" value="&amp;lt;&amp;lt;extend&amp;gt;&amp;gt;" style="endArrow=open;endSize=12;dashed=1;html=1;rounded=0;entryX=0.775;entryY=0.071;entryDx=0;entryDy=0;exitX=0.5;exitY=1;exitDx=0;exitDy=0;endFill=0;startArrow=none;startFill=0;entryPerimeter=0;" edge="1" parent="1" source="L_lRhDQkdML9LVh_LCEE-14" target="szrJrrXE8Vr_B5hQflwQ-264">
          <mxGeometry x="-0.1291" y="-3" width="160" relative="1" as="geometry">
            <mxPoint x="3029" y="1401" as="sourcePoint" />
            <mxPoint x="2831" y="1497" as="targetPoint" />
            <mxPoint as="offset" />
          </mxGeometry>
        </mxCell>
        <mxCell id="L_lRhDQkdML9LVh_LCEE-16" value="" style="endArrow=none;html=1;rounded=0;entryX=0;entryY=0.5;entryDx=0;entryDy=0;" edge="1" parent="1" target="szrJrrXE8Vr_B5hQflwQ-379">
          <mxGeometry width="50" height="50" relative="1" as="geometry">
            <mxPoint x="2380" y="30" as="sourcePoint" />
            <mxPoint x="2820" y="-430" as="targetPoint" />
          </mxGeometry>
        </mxCell>
        <mxCell id="L_lRhDQkdML9LVh_LCEE-17" value="Восстановить пароль&lt;br&gt;в авторизации в личном кабинете&amp;nbsp;" style="ellipse;whiteSpace=wrap;html=1;fontSize=11;" vertex="1" parent="1">
          <mxGeometry x="3420" y="-740" width="140" height="70" as="geometry" />
        </mxCell>
        <mxCell id="L_lRhDQkdML9LVh_LCEE-18" value="&amp;lt;&amp;lt;extend&amp;gt;&amp;gt;" style="endArrow=open;endSize=6;dashed=1;html=1;rounded=0;entryX=1.005;entryY=0.452;entryDx=0;entryDy=0;exitX=0;exitY=0.5;exitDx=0;exitDy=0;entryPerimeter=0;" edge="1" parent="1" source="L_lRhDQkdML9LVh_LCEE-17" target="szrJrrXE8Vr_B5hQflwQ-247">
          <mxGeometry x="-0.1111" width="160" relative="1" as="geometry">
            <mxPoint x="3460" y="-826" as="sourcePoint" />
            <mxPoint x="3321" y="-781" as="targetPoint" />
            <mxPoint as="offset" />
          </mxGeometry>
        </mxCell>
      </root>
    </mxGraphModel>
  </diagram>
  <diagram id="1wiI7OQrHIJpvPrUtJve" name="Crow’s Foot (черновик)">
    <mxGraphModel grid="1" page="1" gridSize="10" guides="1" tooltips="1" connect="1" arrows="1" fold="1" pageScale="1" pageWidth="827" pageHeight="1169" math="0" shadow="0">
      <root>
        <mxCell id="0" />
        <mxCell id="1" parent="0" />
        <mxCell id="rgmNfFbpvc0Dws9LR8Hq-38" value="" style="rounded=1;whiteSpace=wrap;html=1;" vertex="1" parent="1">
          <mxGeometry x="870" y="50" width="820" height="970" as="geometry" />
        </mxCell>
        <mxCell id="RrOHQB9TkVZUn_35RUfc-1" value="Менеджер" style="swimlane;childLayout=stackLayout;horizontal=1;startSize=50;horizontalStack=0;rounded=1;fontSize=14;fontStyle=0;strokeWidth=2;resizeParent=0;resizeLast=1;shadow=0;dashed=0;align=center;arcSize=4;whiteSpace=wrap;html=1;" vertex="1" parent="1">
          <mxGeometry x="319" y="120" width="160" height="120" as="geometry" />
        </mxCell>
        <mxCell id="RrOHQB9TkVZUn_35RUfc-2" value="* Логин менеджера&lt;br&gt;&amp;nbsp; Пароль&lt;br&gt;&amp;nbsp; ФИО&lt;br&gt;&amp;nbsp; Роль" style="align=left;strokeColor=none;fillColor=none;spacingLeft=4;fontSize=12;verticalAlign=top;resizable=0;rotatable=0;part=1;html=1;" vertex="1" parent="RrOHQB9TkVZUn_35RUfc-1">
          <mxGeometry y="50" width="160" height="70" as="geometry" />
        </mxCell>
        <mxCell id="RrOHQB9TkVZUn_35RUfc-3" value="&lt;b style=&quot;border-color: var(--border-color); font-size: 18px;&quot;&gt;Логическая ER-диаграмма в нотации Crow&#39;s Foot.&lt;br&gt;&lt;font style=&quot;border-color: var(--border-color); font-size: 20px; font-weight: 400;&quot;&gt;&lt;b style=&quot;border-color: var(--border-color);&quot;&gt;CRM система для&amp;nbsp; &quot;Амбассадоры&amp;nbsp;&lt;/b&gt;&lt;/font&gt;&lt;b style=&quot;border-color: var(--border-color);&quot;&gt;Практикума&quot;&lt;/b&gt;&lt;br&gt;&lt;/b&gt;" style="text;html=1;align=center;verticalAlign=middle;resizable=0;points=[];autosize=1;strokeColor=none;fillColor=none;" vertex="1" parent="1">
          <mxGeometry x="190" width="480" height="60" as="geometry" />
        </mxCell>
        <mxCell id="rgmNfFbpvc0Dws9LR8Hq-1" value="Амбассадор" style="swimlane;childLayout=stackLayout;horizontal=1;startSize=50;horizontalStack=0;rounded=1;fontSize=14;fontStyle=0;strokeWidth=2;resizeParent=0;resizeLast=1;shadow=0;dashed=0;align=center;arcSize=4;whiteSpace=wrap;html=1;" vertex="1" parent="1">
          <mxGeometry x="319" y="320" width="160" height="310" as="geometry" />
        </mxCell>
        <mxCell id="rgmNfFbpvc0Dws9LR8Hq-2" value="* email амбассадора&lt;br&gt;* Логин менеджера&lt;br&gt;- дата&lt;br class=&quot;softbreak&quot;&gt;- &lt;b&gt;&lt;font color=&quot;#fd0808&quot;&gt;статус&lt;/font&gt;&lt;/b&gt;&lt;br class=&quot;softbreak&quot;&gt;- ФИО&lt;br class=&quot;softbreak&quot;&gt;- программа&amp;nbsp;&lt;br&gt;- страна&lt;br class=&quot;softbreak&quot;&gt;- город&lt;br class=&quot;softbreak&quot;&gt;-&amp;nbsp;телефон&lt;br class=&quot;softbreak&quot;&gt;- tg/whatsapp&lt;br class=&quot;softbreak&quot;&gt;- образование&lt;br class=&quot;softbreak&quot;&gt;- место работы/должность&lt;br class=&quot;softbreak&quot;&gt;- цель в Практикуме&lt;br class=&quot;softbreak&quot;&gt;- цель амбассадорства&lt;br class=&quot;softbreak&quot;&gt;- ссылка на блог&lt;br class=&quot;softbreak&quot;&gt;- пол" style="align=left;strokeColor=none;fillColor=none;spacingLeft=4;fontSize=12;verticalAlign=top;resizable=0;rotatable=0;part=1;html=1;" vertex="1" parent="rgmNfFbpvc0Dws9LR8Hq-1">
          <mxGeometry y="50" width="160" height="260" as="geometry" />
        </mxCell>
        <mxCell id="rgmNfFbpvc0Dws9LR8Hq-3" value="Промокод" style="swimlane;childLayout=stackLayout;horizontal=1;startSize=50;horizontalStack=0;rounded=1;fontSize=14;fontStyle=0;strokeWidth=2;resizeParent=0;resizeLast=1;shadow=0;dashed=0;align=center;arcSize=4;whiteSpace=wrap;html=1;" vertex="1" parent="1">
          <mxGeometry x="60" y="280" width="160" height="120" as="geometry" />
        </mxCell>
        <mxCell id="rgmNfFbpvc0Dws9LR8Hq-4" value="* Номер промокода&lt;br&gt;+Attribute1&lt;br style=&quot;border-color: var(--border-color);&quot;&gt;+Attribute2&lt;br style=&quot;border-color: var(--border-color);&quot;&gt;+Attribute3" style="align=left;strokeColor=none;fillColor=none;spacingLeft=4;fontSize=12;verticalAlign=top;resizable=0;rotatable=0;part=1;html=1;" vertex="1" parent="rgmNfFbpvc0Dws9LR8Hq-3">
          <mxGeometry y="50" width="160" height="70" as="geometry" />
        </mxCell>
        <mxCell id="rgmNfFbpvc0Dws9LR8Hq-5" value="Контент" style="swimlane;childLayout=stackLayout;horizontal=1;startSize=50;horizontalStack=0;rounded=1;fontSize=14;fontStyle=0;strokeWidth=2;resizeParent=0;resizeLast=1;shadow=0;dashed=0;align=center;arcSize=4;whiteSpace=wrap;html=1;" vertex="1" parent="1">
          <mxGeometry x="319" y="710" width="160" height="120" as="geometry" />
        </mxCell>
        <mxCell id="rgmNfFbpvc0Dws9LR8Hq-6" value="* ID контента&lt;br&gt;+Attribute1&lt;br&gt;+Attribute2&lt;br&gt;+Attribute3" style="align=left;strokeColor=none;fillColor=none;spacingLeft=4;fontSize=12;verticalAlign=top;resizable=0;rotatable=0;part=1;html=1;" vertex="1" parent="rgmNfFbpvc0Dws9LR8Hq-5">
          <mxGeometry y="50" width="160" height="70" as="geometry" />
        </mxCell>
        <mxCell id="rgmNfFbpvc0Dws9LR8Hq-7" value="Мерч" style="swimlane;childLayout=stackLayout;horizontal=1;startSize=50;horizontalStack=0;rounded=1;fontSize=14;fontStyle=0;strokeWidth=2;resizeParent=0;resizeLast=1;shadow=0;dashed=0;align=center;arcSize=4;whiteSpace=wrap;html=1;" vertex="1" parent="1">
          <mxGeometry x="599" y="280" width="160" height="120" as="geometry" />
        </mxCell>
        <mxCell id="rgmNfFbpvc0Dws9LR8Hq-8" value="* Артикул мерча&lt;br&gt;+Attribute1&lt;br&gt;+Attribute2&lt;br&gt;+Attribute3" style="align=left;strokeColor=none;fillColor=none;spacingLeft=4;fontSize=12;verticalAlign=top;resizable=0;rotatable=0;part=1;html=1;" vertex="1" parent="rgmNfFbpvc0Dws9LR8Hq-7">
          <mxGeometry y="50" width="160" height="70" as="geometry" />
        </mxCell>
        <mxCell id="rgmNfFbpvc0Dws9LR8Hq-9" value="Чат-Бот ???" style="swimlane;childLayout=stackLayout;horizontal=1;startSize=50;horizontalStack=0;rounded=1;fontSize=14;fontStyle=0;strokeWidth=2;resizeParent=0;resizeLast=1;shadow=0;dashed=0;align=center;arcSize=4;whiteSpace=wrap;html=1;" vertex="1" parent="1">
          <mxGeometry x="919.87" y="230" width="160" height="120" as="geometry" />
        </mxCell>
        <mxCell id="rgmNfFbpvc0Dws9LR8Hq-10" value="* ID чвт-бота&lt;br&gt;" style="align=left;strokeColor=none;fillColor=none;spacingLeft=4;fontSize=12;verticalAlign=top;resizable=0;rotatable=0;part=1;html=1;" vertex="1" parent="rgmNfFbpvc0Dws9LR8Hq-9">
          <mxGeometry y="50" width="160" height="70" as="geometry" />
        </mxCell>
        <mxCell id="rgmNfFbpvc0Dws9LR8Hq-11" value="Уведомление" style="swimlane;childLayout=stackLayout;horizontal=1;startSize=50;horizontalStack=0;rounded=1;fontSize=14;fontStyle=0;strokeWidth=2;resizeParent=0;resizeLast=1;shadow=0;dashed=0;align=center;arcSize=4;whiteSpace=wrap;html=1;" vertex="1" parent="1">
          <mxGeometry x="1190" y="230" width="160" height="120" as="geometry" />
        </mxCell>
        <mxCell id="rgmNfFbpvc0Dws9LR8Hq-12" value="* &lt;font style=&quot;font-size: 11px;&quot;&gt;Номер тикета уведомления&lt;/font&gt;&amp;nbsp;&lt;br&gt;+Attribute1&lt;br&gt;+Attribute2&lt;br&gt;+Attribute3" style="align=left;strokeColor=none;fillColor=none;spacingLeft=4;fontSize=12;verticalAlign=top;resizable=0;rotatable=0;part=1;html=1;" vertex="1" parent="rgmNfFbpvc0Dws9LR8Hq-11">
          <mxGeometry y="50" width="160" height="70" as="geometry" />
        </mxCell>
        <mxCell id="rgmNfFbpvc0Dws9LR8Hq-13" value="Рассылка" style="swimlane;childLayout=stackLayout;horizontal=1;startSize=50;horizontalStack=0;rounded=1;fontSize=14;fontStyle=0;strokeWidth=2;resizeParent=0;resizeLast=1;shadow=0;dashed=0;align=center;arcSize=4;whiteSpace=wrap;html=1;fillColor=#f8cecc;strokeColor=#b85450;" vertex="1" parent="1">
          <mxGeometry x="-210" y="270" width="160" height="120" as="geometry" />
        </mxCell>
        <mxCell id="rgmNfFbpvc0Dws9LR8Hq-14" value="* Номер рассылки&lt;br&gt;+Attribute1&lt;br&gt;+Attribute2&lt;br&gt;+Attribute3" style="align=left;strokeColor=none;fillColor=none;spacingLeft=4;fontSize=12;verticalAlign=top;resizable=0;rotatable=0;part=1;html=1;" vertex="1" parent="rgmNfFbpvc0Dws9LR8Hq-13">
          <mxGeometry y="50" width="160" height="70" as="geometry" />
        </mxCell>
        <mxCell id="rgmNfFbpvc0Dws9LR8Hq-15" value="FAQ" style="swimlane;childLayout=stackLayout;horizontal=1;startSize=50;horizontalStack=0;rounded=1;fontSize=14;fontStyle=0;strokeWidth=2;resizeParent=0;resizeLast=1;shadow=0;dashed=0;align=center;arcSize=4;whiteSpace=wrap;html=1;" vertex="1" parent="1">
          <mxGeometry x="1460" y="230" width="160" height="120" as="geometry" />
        </mxCell>
        <mxCell id="rgmNfFbpvc0Dws9LR8Hq-16" value="* ID FAQ&lt;br&gt;+Attribute1&lt;br&gt;+Attribute2&lt;br&gt;+Attribute3" style="align=left;strokeColor=none;fillColor=none;spacingLeft=4;fontSize=12;verticalAlign=top;resizable=0;rotatable=0;part=1;html=1;" vertex="1" parent="rgmNfFbpvc0Dws9LR8Hq-15">
          <mxGeometry y="50" width="160" height="70" as="geometry" />
        </mxCell>
        <mxCell id="rgmNfFbpvc0Dws9LR8Hq-17" value="Бюджет на мерч" style="swimlane;childLayout=stackLayout;horizontal=1;startSize=50;horizontalStack=0;rounded=1;fontSize=14;fontStyle=0;strokeWidth=2;resizeParent=0;resizeLast=1;shadow=0;dashed=0;align=center;arcSize=4;whiteSpace=wrap;html=1;fillColor=#f8cecc;strokeColor=#b85450;" vertex="1" parent="1">
          <mxGeometry x="919.62" y="580" width="160" height="120" as="geometry" />
        </mxCell>
        <mxCell id="rgmNfFbpvc0Dws9LR8Hq-18" value="*&lt;br&gt;+Attribute1&lt;br&gt;+Attribute2&lt;br&gt;+Attribute3" style="align=left;strokeColor=none;fillColor=none;spacingLeft=4;fontSize=12;verticalAlign=top;resizable=0;rotatable=0;part=1;html=1;" vertex="1" parent="rgmNfFbpvc0Dws9LR8Hq-17">
          <mxGeometry y="50" width="160" height="70" as="geometry" />
        </mxCell>
        <mxCell id="rgmNfFbpvc0Dws9LR8Hq-19" value="Программа&lt;br&gt;лояльности" style="swimlane;childLayout=stackLayout;horizontal=1;startSize=50;horizontalStack=0;rounded=1;fontSize=14;fontStyle=0;strokeWidth=2;resizeParent=0;resizeLast=1;shadow=0;dashed=0;align=center;arcSize=4;whiteSpace=wrap;html=1;fillColor=#f8cecc;strokeColor=#b85450;" vertex="1" parent="1">
          <mxGeometry x="1200.12" y="580" width="160" height="120" as="geometry" />
        </mxCell>
        <mxCell id="rgmNfFbpvc0Dws9LR8Hq-20" value="*&lt;br&gt;+Attribute1&lt;br&gt;+Attribute2&lt;br&gt;+Attribute3" style="align=left;strokeColor=none;fillColor=none;spacingLeft=4;fontSize=12;verticalAlign=top;resizable=0;rotatable=0;part=1;html=1;" vertex="1" parent="rgmNfFbpvc0Dws9LR8Hq-19">
          <mxGeometry y="50" width="160" height="70" as="geometry" />
        </mxCell>
        <mxCell id="rgmNfFbpvc0Dws9LR8Hq-21" value="" style="edgeStyle=entityRelationEdgeStyle;fontSize=12;html=1;endArrow=ERmandOne;startArrow=ERzeroToMany;rounded=0;entryX=1;entryY=0.25;entryDx=0;entryDy=0;endFill=0;startFill=0;exitX=1;exitY=0.25;exitDx=0;exitDy=0;" edge="1" parent="1" source="rgmNfFbpvc0Dws9LR8Hq-2" target="RrOHQB9TkVZUn_35RUfc-2">
          <mxGeometry width="100" height="100" relative="1" as="geometry">
            <mxPoint x="209" y="310" as="sourcePoint" />
            <mxPoint x="479" y="188" as="targetPoint" />
            <Array as="points">
              <mxPoint x="519" y="240" />
              <mxPoint x="539" y="350" />
              <mxPoint x="549" y="290" />
              <mxPoint x="519" y="230" />
            </Array>
          </mxGeometry>
        </mxCell>
        <mxCell id="rgmNfFbpvc0Dws9LR8Hq-22" value="добавляет" style="edgeLabel;html=1;align=center;verticalAlign=middle;resizable=0;points=[];" vertex="1" connectable="0" parent="rgmNfFbpvc0Dws9LR8Hq-21">
          <mxGeometry x="0.0767" y="-1" relative="1" as="geometry">
            <mxPoint x="-1" y="-30" as="offset" />
          </mxGeometry>
        </mxCell>
        <mxCell id="rgmNfFbpvc0Dws9LR8Hq-23" value="Пользователь&lt;br&gt;чат-бота" style="swimlane;childLayout=stackLayout;horizontal=1;startSize=50;horizontalStack=0;rounded=1;fontSize=14;fontStyle=0;strokeWidth=2;resizeParent=0;resizeLast=1;shadow=0;dashed=0;align=center;arcSize=4;whiteSpace=wrap;html=1;fillColor=#f8cecc;strokeColor=#b85450;" vertex="1" parent="1">
          <mxGeometry x="919.87" y="780" width="160" height="120" as="geometry" />
        </mxCell>
        <mxCell id="rgmNfFbpvc0Dws9LR8Hq-24" value="*&lt;br&gt;+Attribute1&lt;br&gt;+Attribute2&lt;br&gt;+Attribute3" style="align=left;strokeColor=none;fillColor=none;spacingLeft=4;fontSize=12;verticalAlign=top;resizable=0;rotatable=0;part=1;html=1;" vertex="1" parent="rgmNfFbpvc0Dws9LR8Hq-23">
          <mxGeometry y="50" width="160" height="70" as="geometry" />
        </mxCell>
        <mxCell id="rgmNfFbpvc0Dws9LR8Hq-25" value="Вопрос-ответ&lt;br&gt;&amp;nbsp;чат-бота" style="swimlane;childLayout=stackLayout;horizontal=1;startSize=50;horizontalStack=0;rounded=1;fontSize=14;fontStyle=0;strokeWidth=2;resizeParent=0;resizeLast=1;shadow=0;dashed=0;align=center;arcSize=4;whiteSpace=wrap;html=1;fillColor=#f8cecc;strokeColor=#b85450;" vertex="1" parent="1">
          <mxGeometry x="1199.87" y="780" width="160" height="120" as="geometry" />
        </mxCell>
        <mxCell id="rgmNfFbpvc0Dws9LR8Hq-26" value="*&lt;br&gt;+Attribute1&lt;br&gt;+Attribute2&lt;br&gt;+Attribute3" style="align=left;strokeColor=none;fillColor=none;spacingLeft=4;fontSize=12;verticalAlign=top;resizable=0;rotatable=0;part=1;html=1;" vertex="1" parent="rgmNfFbpvc0Dws9LR8Hq-25">
          <mxGeometry y="50" width="160" height="70" as="geometry" />
        </mxCell>
        <mxCell id="rgmNfFbpvc0Dws9LR8Hq-27" value="Лог чата" style="swimlane;childLayout=stackLayout;horizontal=1;startSize=50;horizontalStack=0;rounded=1;fontSize=14;fontStyle=0;strokeWidth=2;resizeParent=0;resizeLast=1;shadow=0;dashed=0;align=center;arcSize=4;whiteSpace=wrap;html=1;fillColor=#f8cecc;strokeColor=#b85450;" vertex="1" parent="1">
          <mxGeometry x="1480.37" y="780" width="160" height="120" as="geometry" />
        </mxCell>
        <mxCell id="rgmNfFbpvc0Dws9LR8Hq-28" value="*&lt;br&gt;+Attribute1&lt;br&gt;+Attribute2&lt;br&gt;+Attribute3" style="align=left;strokeColor=none;fillColor=none;spacingLeft=4;fontSize=12;verticalAlign=top;resizable=0;rotatable=0;part=1;html=1;" vertex="1" parent="rgmNfFbpvc0Dws9LR8Hq-27">
          <mxGeometry y="50" width="160" height="70" as="geometry" />
        </mxCell>
        <mxCell id="rgmNfFbpvc0Dws9LR8Hq-29" value="Я.Форма" style="swimlane;childLayout=stackLayout;horizontal=1;startSize=50;horizontalStack=0;rounded=1;fontSize=14;fontStyle=0;strokeWidth=2;resizeParent=0;resizeLast=1;shadow=0;dashed=0;align=center;arcSize=4;whiteSpace=wrap;html=1;fillColor=#f8cecc;strokeColor=#b85450;" vertex="1" parent="1">
          <mxGeometry x="1480.37" y="400" width="160" height="310" as="geometry" />
        </mxCell>
        <mxCell id="rgmNfFbpvc0Dws9LR8Hq-30" value="* ID Я.Формы" style="align=left;strokeColor=none;fillColor=none;spacingLeft=4;fontSize=12;verticalAlign=top;resizable=0;rotatable=0;part=1;html=1;" vertex="1" parent="rgmNfFbpvc0Dws9LR8Hq-29">
          <mxGeometry y="50" width="160" height="260" as="geometry" />
        </mxCell>
        <mxCell id="rgmNfFbpvc0Dws9LR8Hq-32" value="" style="edgeStyle=entityRelationEdgeStyle;fontSize=12;html=1;endArrow=ERmandOne;endFill=0;rounded=0;entryX=0;entryY=0.5;entryDx=0;entryDy=0;exitX=1;exitY=0.5;exitDx=0;exitDy=0;startArrow=ERzeroToMany;startFill=0;" edge="1" parent="1" source="rgmNfFbpvc0Dws9LR8Hq-4" target="rgmNfFbpvc0Dws9LR8Hq-2">
          <mxGeometry width="100" height="100" relative="1" as="geometry">
            <mxPoint x="140" y="700" as="sourcePoint" />
            <mxPoint x="240" y="600" as="targetPoint" />
          </mxGeometry>
        </mxCell>
        <mxCell id="rgmNfFbpvc0Dws9LR8Hq-33" value="Получает" style="edgeLabel;html=1;align=center;verticalAlign=middle;resizable=0;points=[];" vertex="1" connectable="0" parent="rgmNfFbpvc0Dws9LR8Hq-32">
          <mxGeometry x="-0.0816" y="1" relative="1" as="geometry">
            <mxPoint x="12" y="36" as="offset" />
          </mxGeometry>
        </mxCell>
        <mxCell id="rgmNfFbpvc0Dws9LR8Hq-34" value="" style="edgeStyle=entityRelationEdgeStyle;fontSize=12;html=1;endArrow=ERmandOne;endFill=0;rounded=0;startArrow=ERoneToMany;startFill=0;exitX=1;exitY=0.5;exitDx=0;exitDy=0;entryX=1;entryY=0.75;entryDx=0;entryDy=0;" edge="1" parent="1" source="rgmNfFbpvc0Dws9LR8Hq-6" target="rgmNfFbpvc0Dws9LR8Hq-2">
          <mxGeometry width="100" height="100" relative="1" as="geometry">
            <mxPoint x="499.52" y="917.8199999999998" as="sourcePoint" />
            <mxPoint x="479" y="585.0000000000001" as="targetPoint" />
          </mxGeometry>
        </mxCell>
        <mxCell id="rgmNfFbpvc0Dws9LR8Hq-35" value="Имеет" style="edgeLabel;html=1;align=center;verticalAlign=middle;resizable=0;points=[];" vertex="1" connectable="0" parent="rgmNfFbpvc0Dws9LR8Hq-34">
          <mxGeometry x="-0.0165" y="4" relative="1" as="geometry">
            <mxPoint y="1" as="offset" />
          </mxGeometry>
        </mxCell>
        <mxCell id="rgmNfFbpvc0Dws9LR8Hq-36" value="" style="edgeStyle=entityRelationEdgeStyle;fontSize=12;html=1;endArrow=ERmandOne;endFill=0;rounded=0;entryX=1;entryY=0.5;entryDx=0;entryDy=0;startArrow=ERoneToMany;startFill=0;exitX=0;exitY=0.5;exitDx=0;exitDy=0;" edge="1" parent="1" source="rgmNfFbpvc0Dws9LR8Hq-8" target="rgmNfFbpvc0Dws9LR8Hq-2">
          <mxGeometry width="100" height="100" relative="1" as="geometry">
            <mxPoint x="630" y="670" as="sourcePoint" />
            <mxPoint x="730" y="570" as="targetPoint" />
          </mxGeometry>
        </mxCell>
        <mxCell id="rgmNfFbpvc0Dws9LR8Hq-37" value="Получает" style="edgeLabel;html=1;align=center;verticalAlign=middle;resizable=0;points=[];" vertex="1" connectable="0" parent="rgmNfFbpvc0Dws9LR8Hq-36">
          <mxGeometry x="0.1168" y="2" relative="1" as="geometry">
            <mxPoint y="16" as="offset" />
          </mxGeometry>
        </mxCell>
        <mxCell id="rgmNfFbpvc0Dws9LR8Hq-41" value="" style="edgeStyle=entityRelationEdgeStyle;fontSize=12;html=1;endArrow=ERmandOne;startArrow=ERoneToMany;rounded=0;entryX=0;entryY=0.25;entryDx=0;entryDy=0;exitX=1;exitY=0.25;exitDx=0;exitDy=0;startFill=0;" edge="1" parent="1" source="rgmNfFbpvc0Dws9LR8Hq-3" target="RrOHQB9TkVZUn_35RUfc-2">
          <mxGeometry width="100" height="100" relative="1" as="geometry">
            <mxPoint x="200" y="290" as="sourcePoint" />
            <mxPoint x="300" y="190" as="targetPoint" />
            <Array as="points">
              <mxPoint x="-20" y="380" />
              <mxPoint x="40" y="320" />
            </Array>
          </mxGeometry>
        </mxCell>
        <mxCell id="rgmNfFbpvc0Dws9LR8Hq-42" value="Отправляет" style="edgeLabel;html=1;align=center;verticalAlign=middle;resizable=0;points=[];" vertex="1" connectable="0" parent="rgmNfFbpvc0Dws9LR8Hq-41">
          <mxGeometry x="0.0923" y="2" relative="1" as="geometry">
            <mxPoint as="offset" />
          </mxGeometry>
        </mxCell>
        <mxCell id="rgmNfFbpvc0Dws9LR8Hq-43" value="" style="edgeStyle=entityRelationEdgeStyle;fontSize=12;html=1;endArrow=ERmandOne;startArrow=ERoneToMany;rounded=0;entryX=0;entryY=0;entryDx=0;entryDy=0;exitX=1;exitY=0.25;exitDx=0;exitDy=0;startFill=0;" edge="1" parent="1" source="rgmNfFbpvc0Dws9LR8Hq-13" target="RrOHQB9TkVZUn_35RUfc-2">
          <mxGeometry width="100" height="100" relative="1" as="geometry">
            <mxPoint x="-10" y="250" as="sourcePoint" />
            <mxPoint x="90" y="150" as="targetPoint" />
          </mxGeometry>
        </mxCell>
        <mxCell id="rgmNfFbpvc0Dws9LR8Hq-45" value="Отправляет" style="edgeLabel;html=1;align=center;verticalAlign=middle;resizable=0;points=[];" vertex="1" connectable="0" parent="rgmNfFbpvc0Dws9LR8Hq-43">
          <mxGeometry x="-0.0289" y="1" relative="1" as="geometry">
            <mxPoint as="offset" />
          </mxGeometry>
        </mxCell>
        <mxCell id="rgmNfFbpvc0Dws9LR8Hq-44" value="" style="edgeStyle=entityRelationEdgeStyle;fontSize=12;html=1;endArrow=ERmandOne;rounded=0;entryX=1;entryY=0.75;entryDx=0;entryDy=0;exitX=-0.012;exitY=0.82;exitDx=0;exitDy=0;exitPerimeter=0;startArrow=ERoneToMany;startFill=0;" edge="1" parent="1" source="rgmNfFbpvc0Dws9LR8Hq-2" target="rgmNfFbpvc0Dws9LR8Hq-14">
          <mxGeometry width="100" height="100" relative="1" as="geometry">
            <mxPoint x="40" y="710" as="sourcePoint" />
            <mxPoint x="140" y="610" as="targetPoint" />
          </mxGeometry>
        </mxCell>
        <mxCell id="rgmNfFbpvc0Dws9LR8Hq-46" value="Получает" style="edgeLabel;html=1;align=center;verticalAlign=middle;resizable=0;points=[];" vertex="1" connectable="0" parent="rgmNfFbpvc0Dws9LR8Hq-44">
          <mxGeometry x="0.0062" y="1" relative="1" as="geometry">
            <mxPoint as="offset" />
          </mxGeometry>
        </mxCell>
        <mxCell id="rgmNfFbpvc0Dws9LR8Hq-51" value="" style="edgeStyle=entityRelationEdgeStyle;fontSize=12;html=1;endArrow=ERmandOne;rounded=0;entryX=1;entryY=0;entryDx=0;entryDy=0;endFill=0;startArrow=ERoneToMany;startFill=0;" edge="1" parent="1" target="RrOHQB9TkVZUn_35RUfc-2">
          <mxGeometry width="100" height="100" relative="1" as="geometry">
            <mxPoint x="760" y="320" as="sourcePoint" />
            <mxPoint x="810" y="160" as="targetPoint" />
          </mxGeometry>
        </mxCell>
        <mxCell id="rgmNfFbpvc0Dws9LR8Hq-52" value="Отправляет" style="edgeLabel;html=1;align=center;verticalAlign=middle;resizable=0;points=[];" vertex="1" connectable="0" parent="rgmNfFbpvc0Dws9LR8Hq-51">
          <mxGeometry x="-0.5067" y="-1" relative="1" as="geometry">
            <mxPoint y="1" as="offset" />
          </mxGeometry>
        </mxCell>
        <mxCell id="cQ_hp-fxnRHLlxQbUkyB-1" value="" style="rounded=1;whiteSpace=wrap;html=1;strokeColor=#b85450;fillColor=#f8cecc;" vertex="1" parent="1">
          <mxGeometry x="2000" width="1880" height="3150" as="geometry" />
        </mxCell>
        <mxCell id="cQ_hp-fxnRHLlxQbUkyB-2" value="Комьюнити&lt;br&gt;менеджер" style="shape=umlActor;verticalLabelPosition=bottom;verticalAlign=top;html=1;" vertex="1" parent="1">
          <mxGeometry x="1910" y="1570" width="30" height="60" as="geometry" />
        </mxCell>
        <mxCell id="cQ_hp-fxnRHLlxQbUkyB-3" value="Войти в личный&lt;br&gt;кабинет" style="ellipse;whiteSpace=wrap;html=1;" vertex="1" parent="1">
          <mxGeometry x="2030" y="1570" width="140" height="70" as="geometry" />
        </mxCell>
        <mxCell id="cQ_hp-fxnRHLlxQbUkyB-4" value="" style="endArrow=none;html=1;rounded=0;entryX=0;entryY=0.5;entryDx=0;entryDy=0;" edge="1" parent="1" target="cQ_hp-fxnRHLlxQbUkyB-3">
          <mxGeometry width="50" height="50" relative="1" as="geometry">
            <mxPoint x="1940" y="1605" as="sourcePoint" />
            <mxPoint x="2290" y="1635" as="targetPoint" />
          </mxGeometry>
        </mxCell>
        <mxCell id="cQ_hp-fxnRHLlxQbUkyB-5" value="&lt;font style=&quot;font-size: 20px;&quot;&gt;&lt;b style=&quot;font-size: 20px;&quot;&gt;Use Case с&lt;/b&gt;&lt;b style=&quot;border-color: var(--border-color);&quot;&gt;труктурированная.&lt;/b&gt;&lt;b style=&quot;font-size: 20px;&quot;&gt;&lt;br&gt;CRM-система для&amp;nbsp; Амбассадоры&amp;nbsp;&lt;/b&gt;&lt;/font&gt;&lt;span style=&quot;font-size: 20px;&quot;&gt;&lt;b style=&quot;font-size: 20px;&quot;&gt;Практикума&lt;br&gt;&lt;br&gt;СТАРАЯ ВЕРСИЯ!&lt;br&gt;&lt;/b&gt;&lt;/span&gt;" style="text;html=1;align=center;verticalAlign=middle;whiteSpace=wrap;rounded=0;fontSize=20;" vertex="1" parent="1">
          <mxGeometry x="2825" y="100" width="330" height="30" as="geometry" />
        </mxCell>
        <mxCell id="cQ_hp-fxnRHLlxQbUkyB-6" value="Редактировать данные&lt;br style=&quot;border-color: var(--border-color); font-size: 11px;&quot;&gt;амбассадора" style="ellipse;whiteSpace=wrap;html=1;fontSize=11;fillColor=#60a917;fontColor=#ffffff;strokeColor=#2D7600;" vertex="1" parent="1">
          <mxGeometry x="2779.5" y="1060" width="140" height="70" as="geometry" />
        </mxCell>
        <mxCell id="cQ_hp-fxnRHLlxQbUkyB-7" value="Авторизоваться&lt;br&gt;в личном кабинете" style="ellipse;whiteSpace=wrap;html=1;" vertex="1" parent="1">
          <mxGeometry x="2183.5" y="1725" width="140" height="70" as="geometry" />
        </mxCell>
        <mxCell id="cQ_hp-fxnRHLlxQbUkyB-8" value="Посмотреть&lt;br&gt;список амбассадоров" style="ellipse;whiteSpace=wrap;html=1;fillColor=#60a917;fontColor=#ffffff;strokeColor=#2D7600;" vertex="1" parent="1">
          <mxGeometry x="2582" y="910" width="140" height="70" as="geometry" />
        </mxCell>
        <mxCell id="cQ_hp-fxnRHLlxQbUkyB-9" value="&amp;lt;&amp;lt;extend&amp;gt;&amp;gt;" style="endArrow=open;endSize=6;dashed=1;html=1;rounded=0;entryX=1;entryY=0;entryDx=0;entryDy=0;exitX=0.364;exitY=1.024;exitDx=0;exitDy=0;exitPerimeter=0;" edge="1" parent="1" source="cQ_hp-fxnRHLlxQbUkyB-8" target="cQ_hp-fxnRHLlxQbUkyB-7">
          <mxGeometry x="-0.1111" width="160" relative="1" as="geometry">
            <mxPoint x="2406.5" y="1420" as="sourcePoint" />
            <mxPoint x="2566.5" y="1420" as="targetPoint" />
            <mxPoint as="offset" />
          </mxGeometry>
        </mxCell>
        <mxCell id="cQ_hp-fxnRHLlxQbUkyB-10" value="Фильтровать данные&lt;br&gt;амбассадоров" style="ellipse;whiteSpace=wrap;html=1;fillColor=#60a917;fontColor=#ffffff;strokeColor=#2D7600;" vertex="1" parent="1">
          <mxGeometry x="2850" y="740" width="140" height="70" as="geometry" />
        </mxCell>
        <mxCell id="cQ_hp-fxnRHLlxQbUkyB-11" value="&amp;lt;&amp;lt;extend&amp;gt;&amp;gt;" style="endArrow=open;endSize=12;dashed=1;html=1;rounded=0;entryX=0.791;entryY=0.045;entryDx=0;entryDy=0;exitX=0;exitY=0.5;exitDx=0;exitDy=0;endFill=0;startArrow=none;startFill=0;entryPerimeter=0;" edge="1" parent="1" source="cQ_hp-fxnRHLlxQbUkyB-10" target="cQ_hp-fxnRHLlxQbUkyB-8">
          <mxGeometry x="-0.1111" width="160" relative="1" as="geometry">
            <mxPoint x="2802" y="825" as="sourcePoint" />
            <mxPoint x="2662" y="920" as="targetPoint" />
            <mxPoint as="offset" />
          </mxGeometry>
        </mxCell>
        <mxCell id="cQ_hp-fxnRHLlxQbUkyB-12" value="&amp;lt;&amp;lt;extend&amp;gt;&amp;gt;" style="endArrow=open;endSize=12;dashed=1;html=1;rounded=0;exitX=0.5;exitY=0;exitDx=0;exitDy=0;entryX=1;entryY=1;entryDx=0;entryDy=0;" edge="1" parent="1" source="cQ_hp-fxnRHLlxQbUkyB-6" target="cQ_hp-fxnRHLlxQbUkyB-8">
          <mxGeometry x="-0.1111" width="160" relative="1" as="geometry">
            <mxPoint x="2792" y="944.66" as="sourcePoint" />
            <mxPoint x="2720" y="945" as="targetPoint" />
            <mxPoint as="offset" />
          </mxGeometry>
        </mxCell>
        <mxCell id="cQ_hp-fxnRHLlxQbUkyB-13" value="&amp;lt;&amp;lt;extend&amp;gt;&amp;gt;" style="endArrow=open;endSize=6;dashed=1;html=1;rounded=0;entryX=0.5;entryY=1;entryDx=0;entryDy=0;exitX=0;exitY=0;exitDx=0;exitDy=0;" edge="1" parent="1" source="cQ_hp-fxnRHLlxQbUkyB-7" target="cQ_hp-fxnRHLlxQbUkyB-3">
          <mxGeometry x="-0.1111" width="160" relative="1" as="geometry">
            <mxPoint x="2620" y="1620" as="sourcePoint" />
            <mxPoint x="2530" y="1620" as="targetPoint" />
            <mxPoint as="offset" />
          </mxGeometry>
        </mxCell>
        <mxCell id="cQ_hp-fxnRHLlxQbUkyB-14" value="Экспортировать данные&lt;br style=&quot;font-size: 11px;&quot;&gt;амбассадоров" style="ellipse;whiteSpace=wrap;html=1;fontSize=11;fillColor=#60a917;fontColor=#ffffff;strokeColor=#2D7600;" vertex="1" parent="1">
          <mxGeometry x="2850" y="840" width="140" height="70" as="geometry" />
        </mxCell>
        <mxCell id="cQ_hp-fxnRHLlxQbUkyB-15" value="Поиск по ФИО в&lt;br style=&quot;border-color: var(--border-color);&quot;&gt;списке амбассадоров" style="ellipse;whiteSpace=wrap;html=1;fillColor=#60a917;fontColor=#ffffff;strokeColor=#2D7600;" vertex="1" parent="1">
          <mxGeometry x="2582" y="730" width="140" height="70" as="geometry" />
        </mxCell>
        <mxCell id="cQ_hp-fxnRHLlxQbUkyB-16" value="&amp;lt;&amp;lt;extend&amp;gt;&amp;gt;" style="endArrow=open;endSize=12;dashed=1;html=1;rounded=0;entryX=0.5;entryY=0;entryDx=0;entryDy=0;exitX=0.5;exitY=1;exitDx=0;exitDy=0;" edge="1" parent="1" source="cQ_hp-fxnRHLlxQbUkyB-15" target="cQ_hp-fxnRHLlxQbUkyB-8">
          <mxGeometry x="-0.1111" width="160" relative="1" as="geometry">
            <mxPoint x="2618" y="870" as="sourcePoint" />
            <mxPoint x="2658" y="990" as="targetPoint" />
            <mxPoint as="offset" />
          </mxGeometry>
        </mxCell>
        <mxCell id="cQ_hp-fxnRHLlxQbUkyB-17" value="Посмотреть&lt;br&gt;контент" style="ellipse;whiteSpace=wrap;html=1;fillColor=#60a917;fontColor=#ffffff;strokeColor=#2D7600;" vertex="1" parent="1">
          <mxGeometry x="3037.5" y="1265" width="140" height="70" as="geometry" />
        </mxCell>
        <mxCell id="cQ_hp-fxnRHLlxQbUkyB-18" value="Посмотреть &lt;br&gt;отправить мерч" style="ellipse;whiteSpace=wrap;html=1;fillColor=#60a917;fontColor=#ffffff;strokeColor=#2D7600;" vertex="1" parent="1">
          <mxGeometry x="2510" y="1725" width="140" height="70" as="geometry" />
        </mxCell>
        <mxCell id="cQ_hp-fxnRHLlxQbUkyB-19" value="Посмотреть карточку&lt;br&gt;амбассадора" style="ellipse;whiteSpace=wrap;html=1;fillColor=#60a917;fontColor=#ffffff;strokeColor=#2D7600;" vertex="1" parent="1">
          <mxGeometry x="2700" y="1265" width="140" height="70" as="geometry" />
        </mxCell>
        <mxCell id="cQ_hp-fxnRHLlxQbUkyB-20" value="&amp;lt;&amp;lt;include&amp;gt;&amp;gt;" style="endArrow=none;endSize=12;dashed=1;html=1;rounded=0;entryX=0.5;entryY=1;entryDx=0;entryDy=0;exitX=0.5;exitY=0;exitDx=0;exitDy=0;endFill=0;startArrow=open;startFill=0;" edge="1" parent="1" source="cQ_hp-fxnRHLlxQbUkyB-19" target="cQ_hp-fxnRHLlxQbUkyB-8">
          <mxGeometry x="-0.1111" width="160" relative="1" as="geometry">
            <mxPoint x="2749" y="1265" as="sourcePoint" />
            <mxPoint x="2641" y="1160" as="targetPoint" />
            <mxPoint as="offset" />
          </mxGeometry>
        </mxCell>
        <mxCell id="cQ_hp-fxnRHLlxQbUkyB-21" value="&amp;lt;&amp;lt;extend&amp;gt;&amp;gt;" style="endArrow=open;endSize=6;dashed=1;html=1;rounded=0;entryX=1;entryY=0.5;entryDx=0;entryDy=0;exitX=0;exitY=0.5;exitDx=0;exitDy=0;" edge="1" parent="1" source="cQ_hp-fxnRHLlxQbUkyB-18" target="cQ_hp-fxnRHLlxQbUkyB-7">
          <mxGeometry x="-0.1111" width="160" relative="1" as="geometry">
            <mxPoint x="2512.5" y="1820.0000000000005" as="sourcePoint" />
            <mxPoint x="2323.5" y="1910.0000000000005" as="targetPoint" />
            <mxPoint as="offset" />
          </mxGeometry>
        </mxCell>
        <mxCell id="cQ_hp-fxnRHLlxQbUkyB-22" value="&amp;lt;&amp;lt;include&amp;gt;&amp;gt;" style="endArrow=open;endSize=6;dashed=1;html=1;rounded=0;entryX=0.5;entryY=1;entryDx=0;entryDy=0;exitX=0.5;exitY=0;exitDx=0;exitDy=0;fillColor=#f8cecc;strokeColor=#050505;" edge="1" parent="1" source="cQ_hp-fxnRHLlxQbUkyB-18" target="cQ_hp-fxnRHLlxQbUkyB-19">
          <mxGeometry x="-0.1111" width="160" relative="1" as="geometry">
            <mxPoint x="2614.5" y="1650" as="sourcePoint" />
            <mxPoint x="2614.5" y="1450" as="targetPoint" />
            <mxPoint as="offset" />
          </mxGeometry>
        </mxCell>
        <mxCell id="cQ_hp-fxnRHLlxQbUkyB-23" value="Посмотреть&amp;nbsp;&lt;br&gt;бюджет на мерч" style="ellipse;whiteSpace=wrap;html=1;fillColor=#60a917;fontColor=#ffffff;strokeColor=#2D7600;" vertex="1" parent="1">
          <mxGeometry x="2589.5" y="2255.9700000000003" width="140" height="70" as="geometry" />
        </mxCell>
        <mxCell id="cQ_hp-fxnRHLlxQbUkyB-24" value="&lt;font style=&quot;font-size: 11px;&quot;&gt;Посмотреть&lt;br&gt;программу лояльности&lt;/font&gt;" style="ellipse;whiteSpace=wrap;html=1;fillColor=#60a917;fontColor=#ffffff;strokeColor=#2D7600;" vertex="1" parent="1">
          <mxGeometry x="2449.5" y="2505.9700000000003" width="140" height="70" as="geometry" />
        </mxCell>
        <mxCell id="cQ_hp-fxnRHLlxQbUkyB-25" value="&amp;lt;&amp;lt;extend&amp;gt;&amp;gt;" style="endArrow=open;endSize=6;dashed=1;html=1;rounded=0;entryX=0.882;entryY=0.819;entryDx=0;entryDy=0;exitX=0;exitY=0.5;exitDx=0;exitDy=0;entryPerimeter=0;" edge="1" parent="1" source="cQ_hp-fxnRHLlxQbUkyB-23" target="cQ_hp-fxnRHLlxQbUkyB-7">
          <mxGeometry x="-0.1111" width="160" relative="1" as="geometry">
            <mxPoint x="2450" y="1650" as="sourcePoint" />
            <mxPoint x="2350" y="1370" as="targetPoint" />
            <mxPoint as="offset" />
          </mxGeometry>
        </mxCell>
        <mxCell id="cQ_hp-fxnRHLlxQbUkyB-26" value="&amp;lt;&amp;lt;extend&amp;gt;&amp;gt;" style="endArrow=open;endSize=6;dashed=1;html=1;rounded=0;exitX=0.5;exitY=0;exitDx=0;exitDy=0;entryX=0.719;entryY=0.943;entryDx=0;entryDy=0;entryPerimeter=0;" edge="1" parent="1" source="cQ_hp-fxnRHLlxQbUkyB-24" target="cQ_hp-fxnRHLlxQbUkyB-7">
          <mxGeometry x="-0.1111" width="160" relative="1" as="geometry">
            <mxPoint x="2370" y="1820" as="sourcePoint" />
            <mxPoint x="2350" y="1370" as="targetPoint" />
            <mxPoint as="offset" />
          </mxGeometry>
        </mxCell>
        <mxCell id="cQ_hp-fxnRHLlxQbUkyB-27" value="Посмотреть&lt;br&gt;FAQ" style="ellipse;whiteSpace=wrap;html=1;" vertex="1" parent="1">
          <mxGeometry x="2309.5" y="2785.9700000000003" width="140" height="70" as="geometry" />
        </mxCell>
        <mxCell id="cQ_hp-fxnRHLlxQbUkyB-28" value="&amp;lt;&amp;lt;extend&amp;gt;&amp;gt;" style="endArrow=open;endSize=6;dashed=1;html=1;rounded=0;entryX=0.5;entryY=1;entryDx=0;entryDy=0;" edge="1" parent="1" source="cQ_hp-fxnRHLlxQbUkyB-27" target="cQ_hp-fxnRHLlxQbUkyB-7">
          <mxGeometry x="-0.1111" width="160" relative="1" as="geometry">
            <mxPoint x="2334" y="1485" as="sourcePoint" />
            <mxPoint x="2310" y="1405" as="targetPoint" />
            <mxPoint as="offset" />
          </mxGeometry>
        </mxCell>
        <mxCell id="cQ_hp-fxnRHLlxQbUkyB-29" value="Выбрать период&lt;br&gt;в просмотре программы лояльности" style="ellipse;whiteSpace=wrap;html=1;" vertex="1" parent="1">
          <mxGeometry x="2767.5" y="2650" width="140" height="70" as="geometry" />
        </mxCell>
        <mxCell id="cQ_hp-fxnRHLlxQbUkyB-30" value="&amp;lt;&amp;lt;extend&amp;gt;&amp;gt;" style="endArrow=open;endSize=12;dashed=1;html=1;rounded=0;entryX=0.966;entryY=0.684;entryDx=0;entryDy=0;entryPerimeter=0;" edge="1" parent="1" source="cQ_hp-fxnRHLlxQbUkyB-29" target="cQ_hp-fxnRHLlxQbUkyB-24">
          <mxGeometry x="-0.1111" width="160" relative="1" as="geometry">
            <mxPoint x="2756.5" y="2440.9700000000003" as="sourcePoint" />
            <mxPoint x="2683.5" y="2440.9700000000003" as="targetPoint" />
            <mxPoint as="offset" />
          </mxGeometry>
        </mxCell>
        <mxCell id="cQ_hp-fxnRHLlxQbUkyB-31" value="Создать &lt;br&gt;вопрос-ответ&lt;br&gt;в FAQ" style="ellipse;whiteSpace=wrap;html=1;" vertex="1" parent="1">
          <mxGeometry x="2570" y="2770" width="140" height="70" as="geometry" />
        </mxCell>
        <mxCell id="cQ_hp-fxnRHLlxQbUkyB-32" value="Редактировать&lt;br&gt;вопрос-ответ&amp;nbsp;&lt;br&gt;в FAQ" style="ellipse;whiteSpace=wrap;html=1;" vertex="1" parent="1">
          <mxGeometry x="2570" y="2855.97" width="140" height="70" as="geometry" />
        </mxCell>
        <mxCell id="cQ_hp-fxnRHLlxQbUkyB-33" value="Удалить&lt;br&gt;вопрос-ответ&amp;nbsp;&lt;br&gt;в FAQ" style="ellipse;whiteSpace=wrap;html=1;" vertex="1" parent="1">
          <mxGeometry x="2570" y="2940" width="140" height="70" as="geometry" />
        </mxCell>
        <mxCell id="cQ_hp-fxnRHLlxQbUkyB-34" value="Поиск&lt;br&gt;по ключевым словам&lt;br&gt;вопрос-ответ&lt;br&gt;в FAQ" style="ellipse;whiteSpace=wrap;html=1;" vertex="1" parent="1">
          <mxGeometry x="2570" y="2680" width="140" height="70" as="geometry" />
        </mxCell>
        <mxCell id="cQ_hp-fxnRHLlxQbUkyB-35" value="&amp;lt;&amp;lt;extend&amp;gt;&amp;gt;" style="endArrow=open;endSize=12;dashed=1;html=1;rounded=0;entryX=0.918;entryY=0.8;entryDx=0;entryDy=0;exitX=0;exitY=0.5;exitDx=0;exitDy=0;entryPerimeter=0;" edge="1" parent="1" source="cQ_hp-fxnRHLlxQbUkyB-33" target="cQ_hp-fxnRHLlxQbUkyB-27">
          <mxGeometry x="-0.1111" width="160" relative="1" as="geometry">
            <mxPoint x="2617.5" y="2930.44" as="sourcePoint" />
            <mxPoint x="2469.4974746830585" y="2845.718737341529" as="targetPoint" />
            <mxPoint as="offset" />
          </mxGeometry>
        </mxCell>
        <mxCell id="cQ_hp-fxnRHLlxQbUkyB-36" value="&amp;lt;&amp;lt;extend&amp;gt;&amp;gt;" style="endArrow=open;endSize=12;dashed=1;html=1;rounded=0;entryX=1;entryY=0.5;entryDx=0;entryDy=0;exitX=0;exitY=0.5;exitDx=0;exitDy=0;" edge="1" parent="1" source="cQ_hp-fxnRHLlxQbUkyB-32" target="cQ_hp-fxnRHLlxQbUkyB-27">
          <mxGeometry x="-0.1111" width="160" relative="1" as="geometry">
            <mxPoint x="2628" y="2940.97" as="sourcePoint" />
            <mxPoint x="2490" y="2820.97" as="targetPoint" />
            <mxPoint as="offset" />
          </mxGeometry>
        </mxCell>
        <mxCell id="cQ_hp-fxnRHLlxQbUkyB-37" value="&amp;lt;&amp;lt;include&amp;gt;&amp;gt;" style="endArrow=open;endSize=6;dashed=1;html=1;rounded=0;entryX=0;entryY=0.5;entryDx=0;entryDy=0;exitX=0.954;exitY=0.305;exitDx=0;exitDy=0;exitPerimeter=0;" edge="1" parent="1" source="cQ_hp-fxnRHLlxQbUkyB-27" target="cQ_hp-fxnRHLlxQbUkyB-31">
          <mxGeometry x="-0.1111" width="160" relative="1" as="geometry">
            <mxPoint x="2469.4974746830585" y="2796.2212626584715" as="sourcePoint" />
            <mxPoint x="2768" y="2420.9700000000003" as="targetPoint" />
            <mxPoint as="offset" />
          </mxGeometry>
        </mxCell>
        <mxCell id="cQ_hp-fxnRHLlxQbUkyB-38" value="&amp;lt;&amp;lt;extend&amp;gt;&amp;gt;" style="endArrow=open;endSize=12;dashed=1;html=1;rounded=0;exitX=0;exitY=0.5;exitDx=0;exitDy=0;entryX=1;entryY=0;entryDx=0;entryDy=0;" edge="1" parent="1" source="cQ_hp-fxnRHLlxQbUkyB-34" target="cQ_hp-fxnRHLlxQbUkyB-27">
          <mxGeometry x="-0.1111" width="160" relative="1" as="geometry">
            <mxPoint x="2628" y="2940.97" as="sourcePoint" />
            <mxPoint x="2405" y="2853" as="targetPoint" />
            <mxPoint as="offset" />
          </mxGeometry>
        </mxCell>
        <mxCell id="cQ_hp-fxnRHLlxQbUkyB-39" value="Фильтровать мерч &lt;br style=&quot;font-size: 11px;&quot;&gt;в программе лояльности" style="ellipse;whiteSpace=wrap;html=1;fontSize=11;fillColor=#60a917;fontColor=#ffffff;strokeColor=#2D7600;" vertex="1" parent="1">
          <mxGeometry x="2767.5" y="2385.9700000000003" width="140" height="70" as="geometry" />
        </mxCell>
        <mxCell id="cQ_hp-fxnRHLlxQbUkyB-40" value="Поиск по ФИО&amp;nbsp;&lt;br&gt;в программе лояльности" style="ellipse;whiteSpace=wrap;html=1;" vertex="1" parent="1">
          <mxGeometry x="2767.5" y="2555.9700000000003" width="140" height="70" as="geometry" />
        </mxCell>
        <mxCell id="cQ_hp-fxnRHLlxQbUkyB-41" value="&amp;lt;&amp;lt;extend&amp;gt;&amp;gt;" style="endArrow=open;endSize=12;dashed=1;html=1;rounded=0;entryX=1;entryY=0.5;entryDx=0;entryDy=0;exitX=0;exitY=0.5;exitDx=0;exitDy=0;" edge="1" parent="1" source="cQ_hp-fxnRHLlxQbUkyB-40" target="cQ_hp-fxnRHLlxQbUkyB-24">
          <mxGeometry x="-0.1111" width="160" relative="1" as="geometry">
            <mxPoint x="2690" y="2515.9700000000003" as="sourcePoint" />
            <mxPoint x="2570" y="2515.9700000000003" as="targetPoint" />
            <mxPoint as="offset" />
          </mxGeometry>
        </mxCell>
        <mxCell id="cQ_hp-fxnRHLlxQbUkyB-42" value="&amp;lt;&amp;lt;include&amp;gt;&amp;gt;" style="endArrow=none;endSize=12;dashed=1;html=1;rounded=0;entryX=1;entryY=0;entryDx=0;entryDy=0;exitX=0;exitY=0.5;exitDx=0;exitDy=0;endFill=0;startArrow=open;startFill=0;" edge="1" parent="1" source="cQ_hp-fxnRHLlxQbUkyB-39" target="cQ_hp-fxnRHLlxQbUkyB-24">
          <mxGeometry x="-0.1291" y="-3" width="160" relative="1" as="geometry">
            <mxPoint x="2680" y="2365.9700000000003" as="sourcePoint" />
            <mxPoint x="2540" y="2441.9700000000003" as="targetPoint" />
            <mxPoint as="offset" />
          </mxGeometry>
        </mxCell>
        <mxCell id="cQ_hp-fxnRHLlxQbUkyB-43" value="Фильтрация по ключевым параметрам&lt;br style=&quot;font-size: 9px;&quot;&gt;бюджета на мерч во вкладке &quot;Бюджет&quot;" style="ellipse;whiteSpace=wrap;html=1;fontSize=9;fillColor=#60a917;fontColor=#ffffff;strokeColor=#2D7600;" vertex="1" parent="1">
          <mxGeometry x="3225" y="1909" width="140" height="70" as="geometry" />
        </mxCell>
        <mxCell id="cQ_hp-fxnRHLlxQbUkyB-44" value="Экспортировать &lt;br style=&quot;font-size: 11px;&quot;&gt;данные бюджета на мерч во вкладке &quot;Бюджет&quot;" style="ellipse;whiteSpace=wrap;html=1;fontSize=11;fillColor=#60a917;fontColor=#ffffff;strokeColor=#2D7600;" vertex="1" parent="1">
          <mxGeometry x="3225" y="1992.03" width="140" height="70" as="geometry" />
        </mxCell>
        <mxCell id="cQ_hp-fxnRHLlxQbUkyB-45" value="&amp;lt;&amp;lt;extend&amp;gt;&amp;gt;" style="endArrow=open;endSize=12;dashed=1;html=1;rounded=0;exitX=0;exitY=0.5;exitDx=0;exitDy=0;endFill=0;startArrow=none;startFill=0;" edge="1" parent="1" source="cQ_hp-fxnRHLlxQbUkyB-43" target="cQ_hp-fxnRHLlxQbUkyB-23">
          <mxGeometry x="-0.1111" width="160" relative="1" as="geometry">
            <mxPoint x="2940" y="2265.9700000000003" as="sourcePoint" />
            <mxPoint x="3028.42" y="2103.35" as="targetPoint" />
            <mxPoint as="offset" />
          </mxGeometry>
        </mxCell>
        <mxCell id="cQ_hp-fxnRHLlxQbUkyB-46" value="&amp;lt;&amp;lt;extend&amp;gt;&amp;gt;" style="endArrow=open;endSize=12;dashed=1;html=1;rounded=0;entryX=0.939;entryY=0.263;entryDx=0;entryDy=0;exitX=0;exitY=0.5;exitDx=0;exitDy=0;entryPerimeter=0;" edge="1" parent="1" source="cQ_hp-fxnRHLlxQbUkyB-44" target="cQ_hp-fxnRHLlxQbUkyB-23">
          <mxGeometry x="-0.1111" width="160" relative="1" as="geometry">
            <mxPoint x="3170" y="2175.9700000000003" as="sourcePoint" />
            <mxPoint x="3049.4974746830576" y="2111.221262658471" as="targetPoint" />
            <mxPoint as="offset" />
          </mxGeometry>
        </mxCell>
        <mxCell id="cQ_hp-fxnRHLlxQbUkyB-47" value="Посмотреть вкладку&lt;br&gt;&quot;Стоимость товара&quot;&lt;br&gt;в бюджете на мерч" style="ellipse;whiteSpace=wrap;html=1;fillColor=#60a917;fontColor=#ffffff;strokeColor=#2D7600;" vertex="1" parent="1">
          <mxGeometry x="2920" y="2345.9700000000003" width="140" height="70" as="geometry" />
        </mxCell>
        <mxCell id="cQ_hp-fxnRHLlxQbUkyB-48" value="&amp;lt;&amp;lt;include&amp;gt;&amp;gt;" style="endArrow=none;endSize=12;dashed=1;html=1;rounded=0;entryX=1;entryY=1;entryDx=0;entryDy=0;exitX=0;exitY=0.5;exitDx=0;exitDy=0;endFill=0;startArrow=open;startFill=0;" edge="1" parent="1" source="cQ_hp-fxnRHLlxQbUkyB-47" target="cQ_hp-fxnRHLlxQbUkyB-23">
          <mxGeometry x="-0.1111" width="160" relative="1" as="geometry">
            <mxPoint x="2912" y="2232.9700000000003" as="sourcePoint" />
            <mxPoint x="2740" y="2300.9700000000003" as="targetPoint" />
            <mxPoint as="offset" />
          </mxGeometry>
        </mxCell>
        <mxCell id="cQ_hp-fxnRHLlxQbUkyB-49" value="Поиск во вкладке &quot;Бюджет&quot; бюджет на мерч" style="ellipse;whiteSpace=wrap;html=1;fillColor=#60a917;fontColor=#ffffff;strokeColor=#2D7600;" vertex="1" parent="1">
          <mxGeometry x="3225" y="2072.0299999999997" width="140" height="70" as="geometry" />
        </mxCell>
        <mxCell id="cQ_hp-fxnRHLlxQbUkyB-50" value="&amp;lt;&amp;lt;extend&amp;gt;&amp;gt;" style="endArrow=open;endSize=12;dashed=1;html=1;rounded=0;exitX=0;exitY=0.5;exitDx=0;exitDy=0;entryX=0.996;entryY=0.433;entryDx=0;entryDy=0;entryPerimeter=0;" edge="1" parent="1" source="cQ_hp-fxnRHLlxQbUkyB-49" target="cQ_hp-fxnRHLlxQbUkyB-23">
          <mxGeometry x="-0.1111" width="160" relative="1" as="geometry">
            <mxPoint x="3110" y="2105.9700000000003" as="sourcePoint" />
            <mxPoint x="3068.1800000000003" y="2128.41" as="targetPoint" />
            <mxPoint as="offset" />
          </mxGeometry>
        </mxCell>
        <mxCell id="cQ_hp-fxnRHLlxQbUkyB-51" value="Редактировать&lt;br style=&quot;font-size: 11px;&quot;&gt;мерч&amp;nbsp;в посмотреть вкладку&lt;br style=&quot;border-color: var(--border-color); font-size: 11px;&quot;&gt;&lt;span style=&quot;font-size: 11px;&quot;&gt;&quot;Стоимость товара&quot;&lt;/span&gt;" style="ellipse;whiteSpace=wrap;html=1;fontSize=11;fillColor=#60a917;fontColor=#ffffff;strokeColor=#2D7600;" vertex="1" parent="1">
          <mxGeometry x="3150" y="2265.9700000000003" width="140" height="70" as="geometry" />
        </mxCell>
        <mxCell id="cQ_hp-fxnRHLlxQbUkyB-52" value="Добавить мерч&amp;nbsp;в посмотреть вкладку&lt;br style=&quot;border-color: var(--border-color); font-size: 11px;&quot;&gt;&lt;span style=&quot;font-size: 11px;&quot;&gt;&quot;Стоимость товара&quot;&lt;/span&gt;" style="ellipse;whiteSpace=wrap;html=1;fillColor=#60a917;fontColor=#ffffff;strokeColor=#2D7600;" vertex="1" parent="1">
          <mxGeometry x="3150" y="2354.9700000000003" width="140" height="70" as="geometry" />
        </mxCell>
        <mxCell id="cQ_hp-fxnRHLlxQbUkyB-53" value="Удалить мерч&amp;nbsp;в посмотреть вкладку&lt;br style=&quot;border-color: var(--border-color); font-size: 11px;&quot;&gt;&lt;span style=&quot;font-size: 11px;&quot;&gt;&quot;Стоимость товара&quot;&lt;/span&gt;" style="ellipse;whiteSpace=wrap;html=1;fillColor=#60a917;fontColor=#ffffff;strokeColor=#2D7600;" vertex="1" parent="1">
          <mxGeometry x="3150" y="2455.9700000000003" width="140" height="70" as="geometry" />
        </mxCell>
        <mxCell id="cQ_hp-fxnRHLlxQbUkyB-54" value="&amp;lt;&amp;lt;extend&amp;gt;&amp;gt;" style="endArrow=open;endSize=12;dashed=1;html=1;rounded=0;exitX=0;exitY=0.5;exitDx=0;exitDy=0;entryX=1;entryY=0;entryDx=0;entryDy=0;" edge="1" parent="1" source="cQ_hp-fxnRHLlxQbUkyB-51" target="cQ_hp-fxnRHLlxQbUkyB-47">
          <mxGeometry x="-0.1111" width="160" relative="1" as="geometry">
            <mxPoint x="3120" y="2240.9700000000003" as="sourcePoint" />
            <mxPoint x="3019" y="2215.9700000000003" as="targetPoint" />
            <mxPoint as="offset" />
          </mxGeometry>
        </mxCell>
        <mxCell id="cQ_hp-fxnRHLlxQbUkyB-55" value="&amp;lt;&amp;lt;extend&amp;gt;&amp;gt;" style="endArrow=open;endSize=12;dashed=1;html=1;rounded=0;exitX=0;exitY=0.5;exitDx=0;exitDy=0;entryX=1;entryY=1;entryDx=0;entryDy=0;" edge="1" parent="1" source="cQ_hp-fxnRHLlxQbUkyB-53" target="cQ_hp-fxnRHLlxQbUkyB-47">
          <mxGeometry x="-0.1111" width="160" relative="1" as="geometry">
            <mxPoint x="3120" y="2330.9700000000003" as="sourcePoint" />
            <mxPoint x="3032" y="2353.9700000000003" as="targetPoint" />
            <mxPoint as="offset" />
          </mxGeometry>
        </mxCell>
        <mxCell id="cQ_hp-fxnRHLlxQbUkyB-56" value="&amp;lt;&amp;lt;include&amp;gt;&amp;gt;" style="endArrow=open;endSize=6;dashed=1;html=1;rounded=0;entryX=0;entryY=0.5;entryDx=0;entryDy=0;exitX=1;exitY=0.5;exitDx=0;exitDy=0;" edge="1" parent="1" source="cQ_hp-fxnRHLlxQbUkyB-47" target="cQ_hp-fxnRHLlxQbUkyB-52">
          <mxGeometry x="-0.1111" width="160" relative="1" as="geometry">
            <mxPoint x="3026" y="2374.9700000000003" as="sourcePoint" />
            <mxPoint x="3134" y="2404.9700000000003" as="targetPoint" />
            <mxPoint as="offset" />
          </mxGeometry>
        </mxCell>
        <mxCell id="cQ_hp-fxnRHLlxQbUkyB-57" value="Настроить&lt;br style=&quot;font-size: 11px;&quot;&gt;&amp;nbsp;отображение&amp;nbsp;таблицы в посмотреть вкладку&lt;br style=&quot;border-color: var(--border-color); font-size: 11px;&quot;&gt;&quot;Стоимость товара&quot;" style="ellipse;whiteSpace=wrap;html=1;fontSize=11;fillColor=#60a917;fontColor=#ffffff;strokeColor=#2D7600;" vertex="1" parent="1">
          <mxGeometry x="3150" y="2555.9700000000003" width="140" height="70" as="geometry" />
        </mxCell>
        <mxCell id="cQ_hp-fxnRHLlxQbUkyB-58" value="&amp;lt;&amp;lt;extend&amp;gt;&amp;gt;" style="endArrow=open;endSize=12;dashed=1;html=1;rounded=0;exitX=-0.031;exitY=0.418;exitDx=0;exitDy=0;entryX=0.686;entryY=0.942;entryDx=0;entryDy=0;exitPerimeter=0;endFill=0;startArrow=none;startFill=0;entryPerimeter=0;" edge="1" parent="1" source="cQ_hp-fxnRHLlxQbUkyB-57" target="cQ_hp-fxnRHLlxQbUkyB-47">
          <mxGeometry x="-0.1109" width="160" relative="1" as="geometry">
            <mxPoint x="3160" y="2500.9700000000003" as="sourcePoint" />
            <mxPoint x="3049" y="2415.9700000000003" as="targetPoint" />
            <mxPoint as="offset" />
          </mxGeometry>
        </mxCell>
        <mxCell id="cQ_hp-fxnRHLlxQbUkyB-59" value="Фильтрация по ключевым параметрам&lt;br style=&quot;border-color: var(--border-color);&quot;&gt;отправки мерча" style="ellipse;whiteSpace=wrap;html=1;fillColor=#60a917;fontColor=#ffffff;strokeColor=#2D7600;" vertex="1" parent="1">
          <mxGeometry x="2870" y="1500" width="140" height="70" as="geometry" />
        </mxCell>
        <mxCell id="cQ_hp-fxnRHLlxQbUkyB-60" value="Поиск по ФИО в отправке мерча" style="ellipse;whiteSpace=wrap;html=1;fillColor=#60a917;fontColor=#ffffff;strokeColor=#2D7600;" vertex="1" parent="1">
          <mxGeometry x="2870" y="1610" width="140" height="70" as="geometry" />
        </mxCell>
        <mxCell id="cQ_hp-fxnRHLlxQbUkyB-61" value="&amp;lt;&amp;lt;extend&amp;gt;&amp;gt;" style="endArrow=open;endSize=12;dashed=1;html=1;rounded=0;exitX=0;exitY=0.5;exitDx=0;exitDy=0;entryX=0.71;entryY=0.055;entryDx=0;entryDy=0;entryPerimeter=0;endFill=0;startArrow=none;startFill=0;" edge="1" parent="1" source="cQ_hp-fxnRHLlxQbUkyB-59" target="cQ_hp-fxnRHLlxQbUkyB-18">
          <mxGeometry x="-0.1111" width="160" relative="1" as="geometry">
            <mxPoint x="2780" y="1490" as="sourcePoint" />
            <mxPoint x="2680" y="1521" as="targetPoint" />
            <mxPoint as="offset" />
          </mxGeometry>
        </mxCell>
        <mxCell id="cQ_hp-fxnRHLlxQbUkyB-62" value="&amp;lt;&amp;lt;extend&amp;gt;&amp;gt;" style="endArrow=open;endSize=12;dashed=1;html=1;rounded=0;exitX=0;exitY=0.5;exitDx=0;exitDy=0;entryX=0.898;entryY=0.198;entryDx=0;entryDy=0;entryPerimeter=0;" edge="1" parent="1" source="cQ_hp-fxnRHLlxQbUkyB-60" target="cQ_hp-fxnRHLlxQbUkyB-18">
          <mxGeometry x="-0.1111" width="160" relative="1" as="geometry">
            <mxPoint x="2860" y="1540" as="sourcePoint" />
            <mxPoint x="2643" y="1656" as="targetPoint" />
            <mxPoint as="offset" />
          </mxGeometry>
        </mxCell>
        <mxCell id="cQ_hp-fxnRHLlxQbUkyB-63" value="Добавить строку&lt;br style=&quot;border-color: var(--border-color);&quot;&gt;в отправке мерча" style="ellipse;whiteSpace=wrap;html=1;fillColor=#60a917;fontColor=#ffffff;strokeColor=#2D7600;" vertex="1" parent="1">
          <mxGeometry x="2907.5" y="1770" width="140" height="70" as="geometry" />
        </mxCell>
        <mxCell id="cQ_hp-fxnRHLlxQbUkyB-64" value="Удалить строку&lt;br style=&quot;border-color: var(--border-color);&quot;&gt;в отправке мерча" style="ellipse;whiteSpace=wrap;html=1;fillColor=#60a917;fontColor=#ffffff;strokeColor=#2D7600;" vertex="1" parent="1">
          <mxGeometry x="2907.5" y="1940" width="140" height="70" as="geometry" />
        </mxCell>
        <mxCell id="cQ_hp-fxnRHLlxQbUkyB-65" value="&amp;lt;&amp;lt;extend&amp;gt;&amp;gt;" style="endArrow=open;endSize=12;dashed=1;html=1;rounded=0;exitX=0;exitY=0.5;exitDx=0;exitDy=0;entryX=0.983;entryY=0.633;entryDx=0;entryDy=0;entryPerimeter=0;" edge="1" parent="1" source="cQ_hp-fxnRHLlxQbUkyB-63" target="cQ_hp-fxnRHLlxQbUkyB-18">
          <mxGeometry x="-0.1111" width="160" relative="1" as="geometry">
            <mxPoint x="2880" y="1600" as="sourcePoint" />
            <mxPoint x="2640" y="1744" as="targetPoint" />
            <mxPoint as="offset" />
          </mxGeometry>
        </mxCell>
        <mxCell id="cQ_hp-fxnRHLlxQbUkyB-66" value="&amp;lt;&amp;lt;extend&amp;gt;&amp;gt;" style="endArrow=open;endSize=12;dashed=1;html=1;rounded=0;exitX=0;exitY=0.5;exitDx=0;exitDy=0;entryX=0.738;entryY=0.953;entryDx=0;entryDy=0;entryPerimeter=0;" edge="1" parent="1" source="cQ_hp-fxnRHLlxQbUkyB-64" target="cQ_hp-fxnRHLlxQbUkyB-18">
          <mxGeometry x="-0.1111" width="160" relative="1" as="geometry">
            <mxPoint x="3040" y="1715" as="sourcePoint" />
            <mxPoint x="2664" y="1770" as="targetPoint" />
            <mxPoint as="offset" />
          </mxGeometry>
        </mxCell>
        <mxCell id="cQ_hp-fxnRHLlxQbUkyB-67" value="Фильтрация по ключевым параметрам&lt;br style=&quot;border-color: var(--border-color);&quot;&gt;просмотра контента" style="ellipse;whiteSpace=wrap;html=1;fillColor=#d80073;fontColor=#ffffff;strokeColor=#A50040;" vertex="1" parent="1">
          <mxGeometry x="3378" y="907.5" width="140" height="70" as="geometry" />
        </mxCell>
        <mxCell id="cQ_hp-fxnRHLlxQbUkyB-68" value="Настроить&lt;br style=&quot;border-color: var(--border-color);&quot;&gt;&amp;nbsp;отображение&amp;nbsp;таблицы&lt;br style=&quot;border-color: var(--border-color);&quot;&gt;просмотра контента" style="ellipse;whiteSpace=wrap;html=1;fillColor=#60a917;fontColor=#ffffff;strokeColor=#2D7600;" vertex="1" parent="1">
          <mxGeometry x="3378" y="992.5" width="140" height="70" as="geometry" />
        </mxCell>
        <mxCell id="cQ_hp-fxnRHLlxQbUkyB-69" value="Экспортировать данные&lt;br style=&quot;font-size: 11px;&quot;&gt;просмотра контента" style="ellipse;whiteSpace=wrap;html=1;fontSize=11;fillColor=#60a917;fontColor=#ffffff;strokeColor=#2D7600;" vertex="1" parent="1">
          <mxGeometry x="3378" y="1085" width="140" height="70" as="geometry" />
        </mxCell>
        <mxCell id="cQ_hp-fxnRHLlxQbUkyB-70" value="&amp;lt;&amp;lt;extend&amp;gt;&amp;gt;" style="endArrow=open;endSize=12;dashed=1;html=1;rounded=0;entryX=0.817;entryY=0.129;entryDx=0;entryDy=0;exitX=0;exitY=0.5;exitDx=0;exitDy=0;entryPerimeter=0;" edge="1" parent="1" source="cQ_hp-fxnRHLlxQbUkyB-69" target="cQ_hp-fxnRHLlxQbUkyB-17">
          <mxGeometry x="-0.1111" width="160" relative="1" as="geometry">
            <mxPoint x="3698" y="990" as="sourcePoint" />
            <mxPoint x="3170" y="990" as="targetPoint" />
            <mxPoint as="offset" />
          </mxGeometry>
        </mxCell>
        <mxCell id="cQ_hp-fxnRHLlxQbUkyB-71" value="Поиск по ФИО в просмотре контента" style="ellipse;whiteSpace=wrap;html=1;fillColor=#60a917;fontColor=#ffffff;strokeColor=#2D7600;" vertex="1" parent="1">
          <mxGeometry x="3378" y="1170" width="140" height="70" as="geometry" />
        </mxCell>
        <mxCell id="cQ_hp-fxnRHLlxQbUkyB-72" value="Редактировать строку&lt;br style=&quot;border-color: var(--border-color);&quot;&gt;в просмотре контента" style="ellipse;whiteSpace=wrap;html=1;fillColor=#60a917;fontColor=#ffffff;strokeColor=#2D7600;" vertex="1" parent="1">
          <mxGeometry x="3480" y="1265" width="140" height="70" as="geometry" />
        </mxCell>
        <mxCell id="cQ_hp-fxnRHLlxQbUkyB-73" value="&amp;lt;&amp;lt;extend&amp;gt;&amp;gt;" style="endArrow=open;endSize=12;dashed=1;html=1;rounded=0;exitX=0;exitY=0.5;exitDx=0;exitDy=0;entryX=0.5;entryY=0;entryDx=0;entryDy=0;endFill=0;startArrow=none;startFill=0;" edge="1" parent="1" source="cQ_hp-fxnRHLlxQbUkyB-67" target="cQ_hp-fxnRHLlxQbUkyB-17">
          <mxGeometry x="-0.1111" width="160" relative="1" as="geometry">
            <mxPoint x="3358" y="982" as="sourcePoint" />
            <mxPoint x="3078" y="1258" as="targetPoint" />
            <mxPoint as="offset" />
          </mxGeometry>
        </mxCell>
        <mxCell id="cQ_hp-fxnRHLlxQbUkyB-74" value="&amp;lt;&amp;lt;extend&amp;gt;&amp;gt;" style="endArrow=open;endSize=12;dashed=1;html=1;rounded=0;exitX=0;exitY=0.5;exitDx=0;exitDy=0;entryX=0.718;entryY=0.071;entryDx=0;entryDy=0;entryPerimeter=0;" edge="1" parent="1" source="cQ_hp-fxnRHLlxQbUkyB-68" target="cQ_hp-fxnRHLlxQbUkyB-17">
          <mxGeometry x="-0.1111" width="160" relative="1" as="geometry">
            <mxPoint x="3388" y="1045" as="sourcePoint" />
            <mxPoint x="3118" y="1275" as="targetPoint" />
            <mxPoint as="offset" />
          </mxGeometry>
        </mxCell>
        <mxCell id="cQ_hp-fxnRHLlxQbUkyB-75" value="&amp;lt;&amp;lt;extend&amp;gt;&amp;gt;" style="endArrow=open;endSize=12;dashed=1;html=1;rounded=0;exitX=0;exitY=0.5;exitDx=0;exitDy=0;entryX=0.898;entryY=0.18;entryDx=0;entryDy=0;entryPerimeter=0;" edge="1" parent="1" source="cQ_hp-fxnRHLlxQbUkyB-71" target="cQ_hp-fxnRHLlxQbUkyB-17">
          <mxGeometry x="-0.1111" width="160" relative="1" as="geometry">
            <mxPoint x="3388" y="1130" as="sourcePoint" />
            <mxPoint x="3148" y="1280" as="targetPoint" />
            <mxPoint as="offset" />
          </mxGeometry>
        </mxCell>
        <mxCell id="cQ_hp-fxnRHLlxQbUkyB-76" value="&amp;lt;&amp;lt;extend&amp;gt;&amp;gt;" style="endArrow=open;endSize=12;dashed=1;html=1;rounded=0;exitX=0;exitY=0.5;exitDx=0;exitDy=0;entryX=1;entryY=0.5;entryDx=0;entryDy=0;" edge="1" parent="1" source="cQ_hp-fxnRHLlxQbUkyB-72" target="cQ_hp-fxnRHLlxQbUkyB-17">
          <mxGeometry x="-0.1111" width="160" relative="1" as="geometry">
            <mxPoint x="3388" y="1215" as="sourcePoint" />
            <mxPoint x="3173" y="1288" as="targetPoint" />
            <mxPoint as="offset" />
          </mxGeometry>
        </mxCell>
        <mxCell id="cQ_hp-fxnRHLlxQbUkyB-77" value="Настроить&lt;br style=&quot;border-color: var(--border-color); font-size: 11px;&quot;&gt;&amp;nbsp;отображение&amp;nbsp;таблицы&lt;br style=&quot;border-color: var(--border-color); font-size: 11px;&quot;&gt;списка амбассадоров" style="ellipse;whiteSpace=wrap;html=1;fontSize=11;fillColor=#60a917;fontColor=#ffffff;strokeColor=#2D7600;" vertex="1" parent="1">
          <mxGeometry x="2370" y="730" width="140" height="70" as="geometry" />
        </mxCell>
        <mxCell id="cQ_hp-fxnRHLlxQbUkyB-78" value="Удалить строку&lt;br style=&quot;border-color: var(--border-color); font-size: 11px;&quot;&gt;в&amp;nbsp;списке амбассадоров" style="ellipse;whiteSpace=wrap;html=1;fontSize=11;fillColor=#60a917;fontColor=#ffffff;strokeColor=#2D7600;" vertex="1" parent="1">
          <mxGeometry x="2330" y="910" width="140" height="70" as="geometry" />
        </mxCell>
        <mxCell id="cQ_hp-fxnRHLlxQbUkyB-79" value="&amp;lt;&amp;lt;extend&amp;gt;&amp;gt;" style="endArrow=none;endSize=12;dashed=1;html=1;rounded=0;entryX=1;entryY=0.5;entryDx=0;entryDy=0;exitX=0.048;exitY=0.73;exitDx=0;exitDy=0;exitPerimeter=0;endFill=0;startArrow=open;startFill=0;" edge="1" parent="1" source="cQ_hp-fxnRHLlxQbUkyB-8" target="cQ_hp-fxnRHLlxQbUkyB-78">
          <mxGeometry x="-0.1111" width="160" relative="1" as="geometry">
            <mxPoint x="2580" y="960" as="sourcePoint" />
            <mxPoint x="2460" y="1050" as="targetPoint" />
            <mxPoint as="offset" />
          </mxGeometry>
        </mxCell>
        <mxCell id="cQ_hp-fxnRHLlxQbUkyB-80" value="&amp;lt;&amp;lt;extend&amp;gt;&amp;gt;" style="endArrow=open;endSize=12;dashed=1;html=1;rounded=0;entryX=0.323;entryY=0.054;entryDx=0;entryDy=0;exitX=1;exitY=0.5;exitDx=0;exitDy=0;entryPerimeter=0;" edge="1" parent="1" source="cQ_hp-fxnRHLlxQbUkyB-77" target="cQ_hp-fxnRHLlxQbUkyB-8">
          <mxGeometry x="-0.1111" width="160" relative="1" as="geometry">
            <mxPoint x="2662" y="810" as="sourcePoint" />
            <mxPoint x="2662" y="920" as="targetPoint" />
            <mxPoint as="offset" />
          </mxGeometry>
        </mxCell>
        <mxCell id="cQ_hp-fxnRHLlxQbUkyB-81" value="Посмотреть промокод" style="ellipse;whiteSpace=wrap;html=1;fillColor=#60a917;fontColor=#ffffff;strokeColor=#2D7600;" vertex="1" parent="1">
          <mxGeometry x="2194.5" y="550" width="140" height="70" as="geometry" />
        </mxCell>
        <mxCell id="cQ_hp-fxnRHLlxQbUkyB-82" value="&amp;lt;&amp;lt;extend&amp;gt;&amp;gt;" style="endArrow=open;endSize=6;dashed=1;html=1;rounded=0;" edge="1" parent="1" source="cQ_hp-fxnRHLlxQbUkyB-81" target="cQ_hp-fxnRHLlxQbUkyB-7">
          <mxGeometry x="-0.1111" width="160" relative="1" as="geometry">
            <mxPoint x="2524" y="1765" as="sourcePoint" />
            <mxPoint x="2050" y="1460" as="targetPoint" />
            <mxPoint as="offset" />
          </mxGeometry>
        </mxCell>
        <mxCell id="cQ_hp-fxnRHLlxQbUkyB-83" value="Фильтрация &lt;br&gt;по ключевым параметрам&lt;br style=&quot;border-color: var(--border-color); font-size: 11px;&quot;&gt;просмотра промокода" style="ellipse;whiteSpace=wrap;html=1;fontSize=11;fillColor=#60a917;fontColor=#ffffff;strokeColor=#2D7600;" vertex="1" parent="1">
          <mxGeometry x="2424.5" y="170" width="140" height="70" as="geometry" />
        </mxCell>
        <mxCell id="cQ_hp-fxnRHLlxQbUkyB-84" value="Настроить&lt;br style=&quot;border-color: var(--border-color); font-size: 11px;&quot;&gt;&amp;nbsp;отображение&amp;nbsp;таблицы&lt;br style=&quot;border-color: var(--border-color); font-size: 11px;&quot;&gt;просмотра промокода" style="ellipse;whiteSpace=wrap;html=1;fontSize=11;" vertex="1" parent="1">
          <mxGeometry x="2424.5" y="270" width="140" height="70" as="geometry" />
        </mxCell>
        <mxCell id="cQ_hp-fxnRHLlxQbUkyB-85" value="Экспортировать данные&lt;br style=&quot;font-size: 11px;&quot;&gt;просмотра промокода" style="ellipse;whiteSpace=wrap;html=1;fontSize=11;fillColor=#60a917;fontColor=#ffffff;strokeColor=#2D7600;" vertex="1" parent="1">
          <mxGeometry x="2424.5" y="360" width="140" height="70" as="geometry" />
        </mxCell>
        <mxCell id="cQ_hp-fxnRHLlxQbUkyB-86" value="Поиск по ФИО в просмотре промокода" style="ellipse;whiteSpace=wrap;html=1;" vertex="1" parent="1">
          <mxGeometry x="2424.5" y="450" width="140" height="70" as="geometry" />
        </mxCell>
        <mxCell id="cQ_hp-fxnRHLlxQbUkyB-87" value="&amp;lt;&amp;lt;extend&amp;gt;&amp;gt;" style="endArrow=open;endSize=12;dashed=1;html=1;rounded=0;entryX=0.932;entryY=0.216;entryDx=0;entryDy=0;exitX=0;exitY=0.5;exitDx=0;exitDy=0;entryPerimeter=0;" edge="1" parent="1" source="cQ_hp-fxnRHLlxQbUkyB-86" target="cQ_hp-fxnRHLlxQbUkyB-81">
          <mxGeometry x="-0.1111" width="160" relative="1" as="geometry">
            <mxPoint x="2740" y="500" as="sourcePoint" />
            <mxPoint x="2600" y="500" as="targetPoint" />
            <mxPoint as="offset" />
          </mxGeometry>
        </mxCell>
        <mxCell id="cQ_hp-fxnRHLlxQbUkyB-88" value="&amp;lt;&amp;lt;extend&amp;gt;&amp;gt;" style="endArrow=open;endSize=12;dashed=1;html=1;rounded=0;entryX=0.747;entryY=0.056;entryDx=0;entryDy=0;exitX=0;exitY=0.5;exitDx=0;exitDy=0;entryPerimeter=0;" edge="1" parent="1" source="cQ_hp-fxnRHLlxQbUkyB-84" target="cQ_hp-fxnRHLlxQbUkyB-81">
          <mxGeometry x="-0.1111" width="160" relative="1" as="geometry">
            <mxPoint x="2750" y="510" as="sourcePoint" />
            <mxPoint x="2610" y="510" as="targetPoint" />
            <mxPoint as="offset" />
          </mxGeometry>
        </mxCell>
        <mxCell id="cQ_hp-fxnRHLlxQbUkyB-89" value="&amp;lt;&amp;lt;extend&amp;gt;&amp;gt;" style="endArrow=open;endSize=12;dashed=1;html=1;rounded=0;entryX=0.625;entryY=0.016;entryDx=0;entryDy=0;exitX=0;exitY=0.5;exitDx=0;exitDy=0;entryPerimeter=0;endFill=0;startArrow=none;startFill=0;" edge="1" parent="1" source="cQ_hp-fxnRHLlxQbUkyB-83" target="cQ_hp-fxnRHLlxQbUkyB-81">
          <mxGeometry x="-0.1111" width="160" relative="1" as="geometry">
            <mxPoint x="2760" y="520" as="sourcePoint" />
            <mxPoint x="2620" y="520" as="targetPoint" />
            <mxPoint as="offset" />
          </mxGeometry>
        </mxCell>
        <mxCell id="cQ_hp-fxnRHLlxQbUkyB-90" value="Редактировать строку&lt;br style=&quot;border-color: var(--border-color); font-size: 11px;&quot;&gt;в просмотре промокода" style="ellipse;whiteSpace=wrap;html=1;fontSize=11;fillColor=#60a917;fontColor=#ffffff;strokeColor=#2D7600;" vertex="1" parent="1">
          <mxGeometry x="2520" y="550" width="140" height="70" as="geometry" />
        </mxCell>
        <mxCell id="cQ_hp-fxnRHLlxQbUkyB-91" value="&amp;lt;&amp;lt;extend&amp;gt;&amp;gt;" style="endArrow=open;endSize=12;dashed=1;html=1;rounded=0;exitX=0;exitY=0.5;exitDx=0;exitDy=0;entryX=1;entryY=0.5;entryDx=0;entryDy=0;" edge="1" parent="1" source="cQ_hp-fxnRHLlxQbUkyB-90" target="cQ_hp-fxnRHLlxQbUkyB-81">
          <mxGeometry x="-0.1111" width="160" relative="1" as="geometry">
            <mxPoint x="2475.5" y="450.5" as="sourcePoint" />
            <mxPoint x="2265.5" y="545.5" as="targetPoint" />
            <mxPoint as="offset" />
          </mxGeometry>
        </mxCell>
        <mxCell id="cQ_hp-fxnRHLlxQbUkyB-92" value="&amp;lt;&amp;lt;extend&amp;gt;&amp;gt;" style="endArrow=open;endSize=12;dashed=1;html=1;rounded=0;entryX=1;entryY=0;entryDx=0;entryDy=0;exitX=0;exitY=0.5;exitDx=0;exitDy=0;" edge="1" parent="1" source="cQ_hp-fxnRHLlxQbUkyB-85" target="cQ_hp-fxnRHLlxQbUkyB-81">
          <mxGeometry x="-0.1111" width="160" relative="1" as="geometry">
            <mxPoint x="2420" y="275" as="sourcePoint" />
            <mxPoint x="2270" y="490" as="targetPoint" />
            <mxPoint as="offset" />
          </mxGeometry>
        </mxCell>
        <mxCell id="cQ_hp-fxnRHLlxQbUkyB-93" value="&amp;lt;&amp;lt;extend&amp;gt;&amp;gt;" style="endArrow=open;endSize=12;dashed=1;html=1;rounded=0;exitX=0;exitY=0.5;exitDx=0;exitDy=0;" edge="1" parent="1" source="cQ_hp-fxnRHLlxQbUkyB-14" target="cQ_hp-fxnRHLlxQbUkyB-8">
          <mxGeometry x="-0.1111" width="160" relative="1" as="geometry">
            <mxPoint x="2812" y="1045" as="sourcePoint" />
            <mxPoint x="2711" y="980" as="targetPoint" />
            <mxPoint as="offset" />
          </mxGeometry>
        </mxCell>
        <mxCell id="cQ_hp-fxnRHLlxQbUkyB-94" value="Проставление статуса амбассадора в просмотре амбассадоров" style="ellipse;whiteSpace=wrap;html=1;fontSize=11;fillColor=#d80073;fontColor=#ffffff;strokeColor=#A50040;" vertex="1" parent="1">
          <mxGeometry x="2330" y="1000" width="140" height="70" as="geometry" />
        </mxCell>
        <mxCell id="cQ_hp-fxnRHLlxQbUkyB-95" value="Проставление статуса онбординга в просмотре амбассадоров" style="ellipse;whiteSpace=wrap;html=1;fontSize=11;fillColor=#d80073;fontColor=#ffffff;strokeColor=#A50040;" vertex="1" parent="1">
          <mxGeometry x="2330" y="1090.5" width="140" height="70" as="geometry" />
        </mxCell>
        <mxCell id="cQ_hp-fxnRHLlxQbUkyB-96" value="&amp;lt;&amp;lt;extend&amp;gt;&amp;gt;" style="endArrow=open;endSize=12;dashed=1;html=1;rounded=0;entryX=0;entryY=1;entryDx=0;entryDy=0;exitX=1;exitY=0.5;exitDx=0;exitDy=0;" edge="1" parent="1" source="cQ_hp-fxnRHLlxQbUkyB-94" target="cQ_hp-fxnRHLlxQbUkyB-8">
          <mxGeometry x="-0.1111" width="160" relative="1" as="geometry">
            <mxPoint x="2812" y="1045" as="sourcePoint" />
            <mxPoint x="2712" y="980" as="targetPoint" />
            <mxPoint as="offset" />
          </mxGeometry>
        </mxCell>
        <mxCell id="cQ_hp-fxnRHLlxQbUkyB-97" value="&amp;lt;&amp;lt;extend&amp;gt;&amp;gt;" style="endArrow=open;endSize=12;dashed=1;html=1;rounded=0;entryX=0.26;entryY=0.935;entryDx=0;entryDy=0;exitX=1;exitY=0.5;exitDx=0;exitDy=0;entryPerimeter=0;" edge="1" parent="1" source="cQ_hp-fxnRHLlxQbUkyB-95" target="cQ_hp-fxnRHLlxQbUkyB-8">
          <mxGeometry x="-0.1111" width="160" relative="1" as="geometry">
            <mxPoint x="3070" y="905" as="sourcePoint" />
            <mxPoint x="2932" y="930" as="targetPoint" />
            <mxPoint as="offset" />
          </mxGeometry>
        </mxCell>
        <mxCell id="cQ_hp-fxnRHLlxQbUkyB-98" value="Проставление статуса &quot;Гайд&quot; в просмотре контента" style="ellipse;whiteSpace=wrap;html=1;fontSize=11;fillColor=#fff2cc;strokeColor=#d6b656;" vertex="1" parent="1">
          <mxGeometry x="3398" y="1645" width="140" height="70" as="geometry" />
        </mxCell>
        <mxCell id="cQ_hp-fxnRHLlxQbUkyB-99" value="&amp;lt;&amp;lt;extend&amp;gt;&amp;gt;" style="endArrow=open;endSize=12;dashed=1;html=1;rounded=0;exitX=0;exitY=0.5;exitDx=0;exitDy=0;entryX=0.754;entryY=0.94;entryDx=0;entryDy=0;entryPerimeter=0;" edge="1" parent="1" source="cQ_hp-fxnRHLlxQbUkyB-98" target="cQ_hp-fxnRHLlxQbUkyB-17">
          <mxGeometry x="-0.1111" width="160" relative="1" as="geometry">
            <mxPoint x="3544" y="1400" as="sourcePoint" />
            <mxPoint x="3177" y="1331" as="targetPoint" />
            <mxPoint as="offset" />
          </mxGeometry>
        </mxCell>
        <mxCell id="cQ_hp-fxnRHLlxQbUkyB-100" value="Выбрать период во вкладке &quot;Бюджет&quot; бюджет на мерч" style="ellipse;whiteSpace=wrap;html=1;fillColor=#60a917;fontColor=#ffffff;strokeColor=#2D7600;" vertex="1" parent="1">
          <mxGeometry x="3220" y="2149.9700000000003" width="140" height="70" as="geometry" />
        </mxCell>
        <mxCell id="cQ_hp-fxnRHLlxQbUkyB-101" value="&amp;lt;&amp;lt;extend&amp;gt;&amp;gt;" style="endArrow=open;endSize=12;dashed=1;html=1;rounded=0;exitX=0;exitY=0.5;exitDx=0;exitDy=0;entryX=0.974;entryY=0.656;entryDx=0;entryDy=0;entryPerimeter=0;" edge="1" parent="1" source="cQ_hp-fxnRHLlxQbUkyB-100" target="cQ_hp-fxnRHLlxQbUkyB-23">
          <mxGeometry x="-0.1111" width="160" relative="1" as="geometry">
            <mxPoint x="3165" y="2138" as="sourcePoint" />
            <mxPoint x="3065.7999999999993" y="2146.68" as="targetPoint" />
            <mxPoint as="offset" />
          </mxGeometry>
        </mxCell>
        <mxCell id="cQ_hp-fxnRHLlxQbUkyB-102" value="Экспортировать&lt;br style=&quot;border-color: var(--border-color); font-size: 11px;&quot;&gt;данные в просмотре программы лояльности" style="ellipse;whiteSpace=wrap;html=1;fontSize=11;" vertex="1" parent="1">
          <mxGeometry x="2767.5" y="2470" width="140" height="70" as="geometry" />
        </mxCell>
        <mxCell id="cQ_hp-fxnRHLlxQbUkyB-103" value="&amp;lt;&amp;lt;extend&amp;gt;&amp;gt;" style="endArrow=open;endSize=12;dashed=1;html=1;rounded=0;exitX=0;exitY=0.5;exitDx=0;exitDy=0;entryX=0.959;entryY=0.342;entryDx=0;entryDy=0;entryPerimeter=0;" edge="1" parent="1" source="cQ_hp-fxnRHLlxQbUkyB-102" target="cQ_hp-fxnRHLlxQbUkyB-24">
          <mxGeometry x="-0.1111" width="160" relative="1" as="geometry">
            <mxPoint x="2778" y="2431" as="sourcePoint" />
            <mxPoint x="2600" y="2460" as="targetPoint" />
            <mxPoint as="offset" />
          </mxGeometry>
        </mxCell>
        <mxCell id="cQ_hp-fxnRHLlxQbUkyB-104" value="Распределить&amp;nbsp;&lt;br&gt;вопросы по категориям" style="ellipse;whiteSpace=wrap;html=1;" vertex="1" parent="1">
          <mxGeometry x="2570" y="3020" width="140" height="70" as="geometry" />
        </mxCell>
        <mxCell id="cQ_hp-fxnRHLlxQbUkyB-105" value="&amp;lt;&amp;lt;extend&amp;gt;&amp;gt;" style="endArrow=open;endSize=12;dashed=1;html=1;rounded=0;entryX=0.818;entryY=0.891;entryDx=0;entryDy=0;entryPerimeter=0;exitX=0;exitY=0.5;exitDx=0;exitDy=0;" edge="1" parent="1" source="cQ_hp-fxnRHLlxQbUkyB-104" target="cQ_hp-fxnRHLlxQbUkyB-27">
          <mxGeometry x="-0.1111" width="160" relative="1" as="geometry">
            <mxPoint x="2580" y="2985" as="sourcePoint" />
            <mxPoint x="2448" y="2852" as="targetPoint" />
            <mxPoint as="offset" />
          </mxGeometry>
        </mxCell>
        <mxCell id="cQ_hp-fxnRHLlxQbUkyB-106" value="Выход &lt;br&gt;из личного кабинета" style="ellipse;whiteSpace=wrap;html=1;" vertex="1" parent="1">
          <mxGeometry x="2043.5" y="1880" width="140" height="70" as="geometry" />
        </mxCell>
        <mxCell id="cQ_hp-fxnRHLlxQbUkyB-107" value="&amp;lt;&amp;lt;extend&amp;gt;&amp;gt;" style="endArrow=none;endSize=12;dashed=1;html=1;rounded=0;entryX=0.709;entryY=0.046;entryDx=0;entryDy=0;exitX=0.5;exitY=1;exitDx=0;exitDy=0;entryPerimeter=0;endFill=0;startArrow=open;startFill=0;" edge="1" parent="1" source="cQ_hp-fxnRHLlxQbUkyB-6" target="cQ_hp-fxnRHLlxQbUkyB-19">
          <mxGeometry x="-0.1111" width="160" relative="1" as="geometry">
            <mxPoint x="3070" y="905" as="sourcePoint" />
            <mxPoint x="2943" y="937" as="targetPoint" />
            <mxPoint as="offset" />
          </mxGeometry>
        </mxCell>
        <mxCell id="cQ_hp-fxnRHLlxQbUkyB-108" value="Отменить действия&amp;nbsp;&lt;br style=&quot;font-size: 11px;&quot;&gt;в списке амбассадоров" style="ellipse;whiteSpace=wrap;html=1;fontSize=11;fillColor=#60a917;fontColor=#ffffff;strokeColor=#2D7600;" vertex="1" parent="1">
          <mxGeometry x="2850" y="930" width="140" height="70" as="geometry" />
        </mxCell>
        <mxCell id="cQ_hp-fxnRHLlxQbUkyB-109" value="&amp;lt;&amp;lt;extend&amp;gt;&amp;gt;" style="endArrow=open;endSize=12;dashed=1;html=1;rounded=0;exitX=0;exitY=0.5;exitDx=0;exitDy=0;entryX=1;entryY=0.5;entryDx=0;entryDy=0;" edge="1" parent="1" source="cQ_hp-fxnRHLlxQbUkyB-108" target="cQ_hp-fxnRHLlxQbUkyB-8">
          <mxGeometry x="-0.1111" width="160" relative="1" as="geometry">
            <mxPoint x="2860" y="885" as="sourcePoint" />
            <mxPoint x="2719" y="935" as="targetPoint" />
            <mxPoint as="offset" />
          </mxGeometry>
        </mxCell>
        <mxCell id="cQ_hp-fxnRHLlxQbUkyB-110" value="Добавить строку в посмотреть список амбассадоров" style="ellipse;whiteSpace=wrap;html=1;fillColor=#60a917;fontColor=#ffffff;strokeColor=#2D7600;" vertex="1" parent="1">
          <mxGeometry x="2330" y="820" width="140" height="70" as="geometry" />
        </mxCell>
        <mxCell id="cQ_hp-fxnRHLlxQbUkyB-111" value="&amp;lt;&amp;lt;include&amp;gt;&amp;gt;" style="endArrow=none;endSize=12;dashed=1;html=1;rounded=0;entryX=0;entryY=0.5;entryDx=0;entryDy=0;exitX=1;exitY=0.5;exitDx=0;exitDy=0;endFill=0;startArrow=open;startFill=0;" edge="1" parent="1" source="cQ_hp-fxnRHLlxQbUkyB-110" target="cQ_hp-fxnRHLlxQbUkyB-8">
          <mxGeometry x="-0.1111" width="160" relative="1" as="geometry">
            <mxPoint x="2520" y="775" as="sourcePoint" />
            <mxPoint x="2637" y="924" as="targetPoint" />
            <mxPoint as="offset" />
          </mxGeometry>
        </mxCell>
        <mxCell id="cQ_hp-fxnRHLlxQbUkyB-112" value="&lt;div style=&quot;text-align: left;&quot;&gt;&lt;b style=&quot;background-color: initial;&quot;&gt;На обсуждение &quot;Статус вручную или авто&quot; ?&amp;nbsp;&lt;/b&gt;&lt;/div&gt;&lt;div style=&quot;text-align: left;&quot;&gt;&lt;span style=&quot;background-color: initial;&quot;&gt;1. Как будет реагировать система, если совпадает значение статуса &quot;х&quot; установленный сначала вручную, а затем система устанавливает тот же автоматически?&lt;/span&gt;&lt;/div&gt;&lt;div style=&quot;text-align: left;&quot;&gt;&lt;span style=&quot;background-color: initial;&quot;&gt;2. Чей приоритет?&amp;nbsp;&lt;/span&gt;&lt;/div&gt;&lt;div style=&quot;text-align: left;&quot;&gt;&lt;span style=&quot;background-color: initial;&quot;&gt;Или вручную пока оставляем?&lt;/span&gt;&lt;/div&gt;" style="shape=callout;whiteSpace=wrap;html=1;perimeter=calloutPerimeter;position2=0.16;fillColor=#1ba1e2;strokeColor=#006EAF;fontColor=#ffffff;" vertex="1" parent="1">
          <mxGeometry x="3400" y="1520" width="320" height="125" as="geometry" />
        </mxCell>
        <mxCell id="cQ_hp-fxnRHLlxQbUkyB-113" value="&amp;lt;&amp;lt;extend&amp;gt;&amp;gt;" style="endArrow=open;endSize=6;dashed=1;html=1;rounded=0;entryX=0.5;entryY=0;entryDx=0;entryDy=0;exitX=0;exitY=1;exitDx=0;exitDy=0;" edge="1" parent="1" source="cQ_hp-fxnRHLlxQbUkyB-7" target="cQ_hp-fxnRHLlxQbUkyB-106">
          <mxGeometry x="-0.1111" width="160" relative="1" as="geometry">
            <mxPoint x="2194" y="1770" as="sourcePoint" />
            <mxPoint x="2144" y="1660" as="targetPoint" />
            <mxPoint as="offset" />
          </mxGeometry>
        </mxCell>
        <mxCell id="cQ_hp-fxnRHLlxQbUkyB-114" value="Зарегистрироваться&lt;br&gt;в личном кабинете" style="ellipse;whiteSpace=wrap;html=1;" vertex="1" parent="1">
          <mxGeometry x="2100" y="1430" width="140" height="70" as="geometry" />
        </mxCell>
        <mxCell id="cQ_hp-fxnRHLlxQbUkyB-115" value="&amp;lt;&amp;lt;extend&amp;gt;&amp;gt;" style="endArrow=open;endSize=6;dashed=1;html=1;rounded=0;entryX=0.5;entryY=0;entryDx=0;entryDy=0;exitX=0.5;exitY=1;exitDx=0;exitDy=0;" edge="1" parent="1" source="cQ_hp-fxnRHLlxQbUkyB-114" target="cQ_hp-fxnRHLlxQbUkyB-3">
          <mxGeometry x="-0.1111" width="160" relative="1" as="geometry">
            <mxPoint x="2214" y="1745" as="sourcePoint" />
            <mxPoint x="2144" y="1660" as="targetPoint" />
            <mxPoint as="offset" />
          </mxGeometry>
        </mxCell>
        <mxCell id="cQ_hp-fxnRHLlxQbUkyB-116" value="Посмотреть историю изменений" style="ellipse;whiteSpace=wrap;html=1;" vertex="1" parent="1">
          <mxGeometry x="2130" y="2030" width="140" height="70" as="geometry" />
        </mxCell>
        <mxCell id="cQ_hp-fxnRHLlxQbUkyB-117" value="&amp;lt;&amp;lt;extend&amp;gt;&amp;gt;" style="endArrow=open;endSize=6;dashed=1;html=1;rounded=0;exitX=0;exitY=1;exitDx=0;exitDy=0;entryX=0.957;entryY=0.314;entryDx=0;entryDy=0;entryPerimeter=0;" edge="1" parent="1" source="cQ_hp-fxnRHLlxQbUkyB-17" target="cQ_hp-fxnRHLlxQbUkyB-7">
          <mxGeometry x="-0.1111" width="160" relative="1" as="geometry">
            <mxPoint x="2643" y="992" as="sourcePoint" />
            <mxPoint x="2320" y="1745" as="targetPoint" />
            <mxPoint as="offset" />
          </mxGeometry>
        </mxCell>
        <mxCell id="cQ_hp-fxnRHLlxQbUkyB-118" value="Поиск в посмотреть вкладку&lt;br style=&quot;border-color: var(--border-color); font-size: 11px;&quot;&gt;&quot;Стоимость товара&quot;" style="ellipse;whiteSpace=wrap;html=1;fillColor=#60a917;fontColor=#ffffff;strokeColor=#2D7600;" vertex="1" parent="1">
          <mxGeometry x="3150" y="2660" width="140" height="70" as="geometry" />
        </mxCell>
        <mxCell id="cQ_hp-fxnRHLlxQbUkyB-119" value="&amp;lt;&amp;lt;extend&amp;gt;&amp;gt;" style="endArrow=open;endSize=12;dashed=1;html=1;rounded=0;exitX=0;exitY=0.5;exitDx=0;exitDy=0;entryX=0.5;entryY=1;entryDx=0;entryDy=0;endFill=0;startArrow=none;startFill=0;" edge="1" parent="1" source="cQ_hp-fxnRHLlxQbUkyB-118" target="cQ_hp-fxnRHLlxQbUkyB-47">
          <mxGeometry x="-0.1109" width="160" relative="1" as="geometry">
            <mxPoint x="3156" y="2595" as="sourcePoint" />
            <mxPoint x="3000" y="2426" as="targetPoint" />
            <mxPoint as="offset" />
          </mxGeometry>
        </mxCell>
        <mxCell id="cQ_hp-fxnRHLlxQbUkyB-120" value="Редактировать строку&lt;br style=&quot;border-color: var(--border-color);&quot;&gt;в отправке мерча" style="ellipse;whiteSpace=wrap;html=1;fillColor=#60a917;fontColor=#ffffff;strokeColor=#2D7600;" vertex="1" parent="1">
          <mxGeometry x="2907.5" y="1850" width="140" height="70" as="geometry" />
        </mxCell>
        <mxCell id="cQ_hp-fxnRHLlxQbUkyB-121" value="&amp;lt;&amp;lt;extend&amp;gt;&amp;gt;" style="endArrow=open;endSize=12;dashed=1;html=1;rounded=0;exitX=0;exitY=0.5;exitDx=0;exitDy=0;entryX=0.896;entryY=0.797;entryDx=0;entryDy=0;entryPerimeter=0;" edge="1" parent="1" source="cQ_hp-fxnRHLlxQbUkyB-120" target="cQ_hp-fxnRHLlxQbUkyB-18">
          <mxGeometry x="-0.1111" width="160" relative="1" as="geometry">
            <mxPoint x="2918" y="1985" as="sourcePoint" />
            <mxPoint x="2623" y="1802" as="targetPoint" />
            <mxPoint as="offset" />
          </mxGeometry>
        </mxCell>
        <mxCell id="cQ_hp-fxnRHLlxQbUkyB-122" value="&amp;lt;&amp;lt;extend&amp;gt;&amp;gt;" style="endArrow=open;endSize=6;dashed=1;html=1;rounded=0;exitX=0.332;exitY=0.929;exitDx=0;exitDy=0;exitPerimeter=0;" edge="1" parent="1" source="cQ_hp-fxnRHLlxQbUkyB-7" target="cQ_hp-fxnRHLlxQbUkyB-116">
          <mxGeometry x="-0.1111" width="160" relative="1" as="geometry">
            <mxPoint x="2214" y="1795" as="sourcePoint" />
            <mxPoint x="2144" y="1870" as="targetPoint" />
            <mxPoint as="offset" />
          </mxGeometry>
        </mxCell>
        <mxCell id="cQ_hp-fxnRHLlxQbUkyB-123" value="Настройки" style="ellipse;whiteSpace=wrap;html=1;" vertex="1" parent="1">
          <mxGeometry x="2060" y="2187" width="140" height="70" as="geometry" />
        </mxCell>
      </root>
    </mxGraphModel>
  </diagram>
</mxfile>
